<?xml version="1.0" encoding="UTF-8" standalone="no"?>
<!-- Created with Inkscape (http://www.inkscape.org/) -->

<svg
   xmlns:dc="http://purl.org/dc/elements/1.1/"
   xmlns:cc="http://creativecommons.org/ns#"
   xmlns:rdf="http://www.w3.org/1999/02/22-rdf-syntax-ns#"
   xmlns:svg="http://www.w3.org/2000/svg"
   xmlns="http://www.w3.org/2000/svg"
   xmlns:xlink="http://www.w3.org/1999/xlink"
   xmlns:sodipodi="http://sodipodi.sourceforge.net/DTD/sodipodi-0.dtd"
   xmlns:inkscape="http://www.inkscape.org/namespaces/inkscape"
   sodipodi:docname="footer-logo.svg"
   inkscape:version="0.48.4 r9939"
   version="1.1"
   id="svg2"
   height="53"
   width="291"
   inkscape:export-filename="C:\Users\Sam Herrmann\Desktop\footer-logo.png"
   inkscape:export-xdpi="600"
   inkscape:export-ydpi="600">
  <defs
     id="defs4">
    <linearGradient
       id="linearGradient4392">
      <stop
         style="stop-color:#000000;stop-opacity:1;"
         offset="0"
         id="stop4394" />
      <stop
         style="stop-color:#111111;stop-opacity:1;"
         offset="1"
         id="stop4396" />
    </linearGradient>
    <inkscape:perspective
       sodipodi:type="inkscape:persp3d"
       inkscape:vp_x="0 : 816 : 1"
       inkscape:vp_y="0 : 1000 : 0"
       inkscape:vp_z="8032 : 816 : 1"
       inkscape:persp3d-origin="4016 : 544 : 1"
       id="perspective3820" />
    <linearGradient
       id="linearGradient5045">
      <stop
         style="stop-color:#000000;stop-opacity:1;"
         offset="0"
         id="stop5047" />
      <stop
         style="stop-color:#333333;stop-opacity:1;"
         offset="1"
         id="stop5049" />
    </linearGradient>
    <linearGradient
       inkscape:collect="always"
       xlink:href="#linearGradient5045"
       id="linearGradient5051"
       x1="3731.5034"
       y1="975.40082"
       x2="3735.5442"
       y2="1359.2588"
       gradientUnits="userSpaceOnUse"
       gradientTransform="matrix(0.25,0,0,0.25,195.02344,1028.1243)" />
    <filter
       id="filter4503"
       inkscape:label="Inner Shadow"
       inkscape:menu="Shadows and Glows"
       inkscape:menu-tooltip="Adds a colorizable drop shadow inside"
       color-interpolation-filters="sRGB"
       x="-0.1"
       width="1.1900001">
      <feGaussianBlur
         id="feGaussianBlur4505"
         stdDeviation="34.100000000000001"
         result="result8" />
      <feOffset
         id="feOffset4507"
         dx="57"
         dy="57"
         result="result11" />
      <feComposite
         id="feComposite4509"
         in2="result11"
         result="result6"
         in="SourceGraphic"
         operator="in" />
      <feFlood
         id="feFlood4511"
         result="result10"
         in="result6"
         flood-opacity="1"
         flood-color="rgb(0,0,0)" />
      <feBlend
         id="feBlend4513"
         in2="result10"
         mode="normal"
         in="result6"
         result="result12" />
      <feComposite
         id="feComposite4515"
         in2="SourceGraphic"
         result="result2"
         operator="in" />
    </filter>
    <linearGradient
       inkscape:collect="always"
       xlink:href="#linearGradient5045"
       id="linearGradient3102"
       gradientUnits="userSpaceOnUse"
       gradientTransform="matrix(0.125,0,0,0.125,227.52734,1199.4783)"
       x1="3731.5034"
       y1="975.40082"
       x2="3735.5442"
       y2="1359.2588" />
    <linearGradient
       inkscape:collect="always"
       xlink:href="#linearGradient5045"
       id="linearGradient3041"
       gradientUnits="userSpaceOnUse"
       gradientTransform="matrix(0.125,0,0,0.125,227.52734,1199.4783)"
       x1="3731.5034"
       y1="975.40082"
       x2="3735.5442"
       y2="1359.2588" />
    <linearGradient
       inkscape:collect="always"
       xlink:href="#linearGradient5045"
       id="linearGradient3043"
       gradientUnits="userSpaceOnUse"
       gradientTransform="matrix(0.125,0,0,0.125,227.52734,1199.4783)"
       x1="3731.5034"
       y1="975.40082"
       x2="3735.5442"
       y2="1359.2588" />
    <linearGradient
       inkscape:collect="always"
       xlink:href="#linearGradient5045"
       id="linearGradient3045"
       gradientUnits="userSpaceOnUse"
       gradientTransform="matrix(0.125,0,0,0.125,227.52734,1199.4783)"
       x1="3731.5034"
       y1="975.40082"
       x2="3735.5442"
       y2="1359.2588" />
    <linearGradient
       inkscape:collect="always"
       xlink:href="#linearGradient5045"
       id="linearGradient3047"
       gradientUnits="userSpaceOnUse"
       gradientTransform="matrix(0.125,0,0,0.125,227.52734,1199.4783)"
       x1="3731.5034"
       y1="975.40082"
       x2="3735.5442"
       y2="1359.2588" />
    <linearGradient
       inkscape:collect="always"
       xlink:href="#linearGradient5045"
       id="linearGradient3049"
       gradientUnits="userSpaceOnUse"
       gradientTransform="matrix(0.125,0,0,0.125,227.52734,1199.4783)"
       x1="3731.5034"
       y1="975.40082"
       x2="3735.5442"
       y2="1359.2588" />
    <linearGradient
       inkscape:collect="always"
       xlink:href="#linearGradient5045"
       id="linearGradient3051"
       gradientUnits="userSpaceOnUse"
       gradientTransform="matrix(0.125,0,0,0.125,227.52734,1199.4783)"
       x1="3731.5034"
       y1="975.40082"
       x2="3735.5442"
       y2="1359.2588" />
    <linearGradient
       inkscape:collect="always"
       xlink:href="#linearGradient5045"
       id="linearGradient3053"
       gradientUnits="userSpaceOnUse"
       gradientTransform="matrix(0.125,0,0,0.125,227.52734,1199.4783)"
       x1="3731.5034"
       y1="975.40082"
       x2="3735.5442"
       y2="1359.2588" />
    <linearGradient
       inkscape:collect="always"
       xlink:href="#linearGradient5045"
       id="linearGradient3055"
       gradientUnits="userSpaceOnUse"
       gradientTransform="matrix(0.125,0,0,0.125,227.52734,1199.4783)"
       x1="3731.5034"
       y1="975.40082"
       x2="3735.5442"
       y2="1359.2588" />
    <linearGradient
       inkscape:collect="always"
       xlink:href="#linearGradient5045"
       id="linearGradient3057"
       gradientUnits="userSpaceOnUse"
       gradientTransform="matrix(0.125,0,0,0.125,227.52734,1199.4783)"
       x1="3731.5034"
       y1="975.40082"
       x2="3735.5442"
       y2="1359.2588" />
    <linearGradient
       inkscape:collect="always"
       xlink:href="#linearGradient5045"
       id="linearGradient3059"
       gradientUnits="userSpaceOnUse"
       gradientTransform="matrix(0.125,0,0,0.125,227.52734,1199.4783)"
       x1="3731.5034"
       y1="975.40082"
       x2="3735.5442"
       y2="1359.2588" />
    <linearGradient
       inkscape:collect="always"
       xlink:href="#linearGradient5045"
       id="linearGradient3061"
       gradientUnits="userSpaceOnUse"
       gradientTransform="matrix(0.125,0,0,0.125,227.52734,1199.4783)"
       x1="3731.5034"
       y1="975.40082"
       x2="3735.5442"
       y2="1359.2588" />
    <linearGradient
       inkscape:collect="always"
       xlink:href="#linearGradient5045"
       id="linearGradient3063"
       gradientUnits="userSpaceOnUse"
       gradientTransform="matrix(0.125,0,0,0.125,227.52734,1199.4783)"
       x1="3731.5034"
       y1="975.40082"
       x2="3735.5442"
       y2="1359.2588" />
    <linearGradient
       inkscape:collect="always"
       xlink:href="#linearGradient5045"
       id="linearGradient3065"
       gradientUnits="userSpaceOnUse"
       gradientTransform="matrix(0.125,0,0,0.125,227.52734,1199.4783)"
       x1="3731.5034"
       y1="975.40082"
       x2="3735.5442"
       y2="1359.2588" />
    <linearGradient
       inkscape:collect="always"
       xlink:href="#linearGradient5045"
       id="linearGradient3067"
       gradientUnits="userSpaceOnUse"
       gradientTransform="matrix(0.125,0,0,0.125,227.52734,1199.4783)"
       x1="3731.5034"
       y1="975.40082"
       x2="3735.5442"
       y2="1359.2588" />
    <linearGradient
       inkscape:collect="always"
       xlink:href="#linearGradient5045"
       id="linearGradient3069"
       gradientUnits="userSpaceOnUse"
       gradientTransform="matrix(0.125,0,0,0.125,227.52734,1199.4783)"
       x1="3731.5034"
       y1="975.40082"
       x2="3735.5442"
       y2="1359.2588" />
    <linearGradient
       inkscape:collect="always"
       xlink:href="#linearGradient5045"
       id="linearGradient3071"
       gradientUnits="userSpaceOnUse"
       gradientTransform="matrix(0.125,0,0,0.125,227.52734,1199.4783)"
       x1="3731.5034"
       y1="975.40082"
       x2="3735.5442"
       y2="1359.2588" />
    <linearGradient
       inkscape:collect="always"
       xlink:href="#linearGradient5045"
       id="linearGradient3073"
       gradientUnits="userSpaceOnUse"
       gradientTransform="matrix(0.125,0,0,0.125,227.52734,1199.4783)"
       x1="3731.5034"
       y1="975.40082"
       x2="3735.5442"
       y2="1359.2588" />
    <linearGradient
       inkscape:collect="always"
       xlink:href="#linearGradient5045"
       id="linearGradient4398"
       x1="836.12189"
       y1="1320.3475"
       x2="836.00995"
       y2="1369.1379"
       gradientUnits="userSpaceOnUse" />
  </defs>
  <sodipodi:namedview
     id="base"
     pagecolor="#ffffff"
     bordercolor="#666666"
     borderopacity="1.0"
     inkscape:pageopacity="1"
     inkscape:pageshadow="2"
     inkscape:zoom="2"
     inkscape:cx="137.98712"
     inkscape:cy="35.821696"
     inkscape:document-units="px"
     inkscape:current-layer="layer2"
     showgrid="false"
     fit-margin-top="0"
     fit-margin-left="0"
     fit-margin-right="0"
     fit-margin-bottom="0"
     inkscape:snap-bbox="true"
     inkscape:window-width="1280"
     inkscape:window-height="738"
     inkscape:window-x="-8"
     inkscape:window-y="-8"
     inkscape:window-maximized="1"
     inkscape:snap-bbox-edge-midpoints="false"
     inkscape:bbox-nodes="true"
     inkscape:bbox-paths="true"
     inkscape:snap-global="false"
     inkscape:snap-grids="true"
     inkscape:snap-to-guides="true"
     inkscape:object-nodes="true"
     units="px" />
  <metadata
     id="metadata7">
    <rdf:RDF>
      <cc:Work
         rdf:about="">
        <dc:format>image/svg+xml</dc:format>
        <dc:type
           rdf:resource="http://purl.org/dc/dcmitype/StillImage" />
        <dc:title />
      </cc:Work>
    </rdf:RDF>
  </metadata>
  <g
     inkscape:groupmode="layer"
     id="layer2"
     inkscape:label="Text"
     style="display:inline"
     transform="translate(-266.33024,-1314.0584)">
    <g
       transform="matrix(0.03773663,0,0,0.03773663,405.39678,1440.5949)"
       style="font-size:40px;font-style:normal;font-variant:normal;font-weight:normal;font-stretch:normal;line-height:125%;letter-spacing:-41.38000106999999900px;word-spacing:0px;fill:#555555;fill-opacity:1;stroke:none;font-family:Swis721 BlkEx BT;-inkscape-font-specification:Swis721 BlkEx BT"
       id="text4858"
       inkscape:export-xdpi="600"
       inkscape:export-ydpi="600">
      <path
         style="font-size:998px;fill:#555555;fill-opacity:1;font-family:Swis721 Blk BT;-inkscape-font-specification:Swis721 Blk BT"
         d="m 980.34375,272.8125 0,222.21875 230.50005,240.21875 0,-22.875 214.9062,0 0,278.25 230.5,0 0,-717.8125 -230.5,0 0,243.65625 -214.9062,0 0,-243.65625 -230.50005,0 z"
         transform="translate(-3775.347,-3482.3056)"
         id="path5186"
         inkscape:connector-curvature="0" />
      <path
         d="m -2025.4928,-2491.6851 0,-717.7998 574.0449,0 0,172.0186 -343.5498,0 0,95.5117 290.4336,0 0,164.709 -290.4336,0 0,111.1055 357.6817,0 0,174.455 z"
         style="font-size:998px;fill:#555555;fill-opacity:1;font-family:Swis721 Blk BT;-inkscape-font-specification:Swis721 Blk BT"
         id="path5188"
         inkscape:connector-curvature="0" />
      <path
         d="m -1143.4304,-2901.021 104.7705,0 c 36.7098,4e-4 62.04966,-4.9538 76.01952,-14.8628 13.96891,-9.9081 20.9536,-27.2074 20.9541,-51.8979 -5e-4,-25.3394 -6.98519,-42.9635 -20.9541,-52.8726 -13.96986,-9.908 -41.25892,-14.8622 -81.86722,-14.8628 l -98.9228,0 z m -227.5713,409.3359 0,-717.7998 343.5498,0 c 107.53138,8e-4 184.28179,16.0818 230.25146,48.2432 45.96839,32.1627 68.9529,84.954 68.95361,158.374 -7.1e-4,43.8579 -9.42192,80.2433 -28.26367,109.1563 -18.84311,28.9138 -47.91893,51.8171 -87.22754,68.7099 39.95835,8.447 69.03417,25.0965 87.22754,49.9488 18.19201,24.8528 27.93809,61.3194 29.23828,109.3999 l 3.89844,99.8974 c -7.1e-4,0.6498 0.16172,1.462 0.48731,2.4366 0.97389,28.5885 7.79615,43.5325 20.46679,44.832 l 0,26.8017 -232.44433,0 c -4.22381,-17.218 -7.39129,-32.2433 -9.50245,-45.0756 -2.11214,-12.8323 -3.16797,-22.8221 -3.16748,-29.9693 l 0,-71.6338 c -4.9e-4,-37.0349 -7.31005,-63.1057 -21.92871,-78.2124 -14.61959,-15.1062 -39.95945,-22.6594 -76.01955,-22.6596 l -97.9482,0 0,247.5507 z"
         style="font-size:998px;fill:#555555;fill-opacity:1;font-family:Swis721 Blk BT;-inkscape-font-specification:Swis721 Blk BT"
         id="path5190"
         inkscape:connector-curvature="0" />
      <path
         d="m -422.66577,-2901.021 104.77051,0 c 36.70985,4e-4 62.04966,-4.9538 76.01953,-14.8628 13.96891,-9.9081 20.9536,-27.2074 20.9541,-51.8979 -5e-4,-25.3394 -6.98519,-42.9635 -20.9541,-52.8726 -13.96987,-9.908 -41.2589,-14.8622 -81.86719,-14.8628 l -98.92285,0 z m -227.57129,409.3359 0,-717.7998 343.5498,0 c 107.53139,8e-4 184.2818,16.0818 230.251469,48.2432 45.968388,32.1627 68.9529028,84.954 68.9536133,158.374 -7.105e-4,43.8579 -9.4219253,80.2433 -28.2636723,109.1563 -18.843111,28.9138 -47.918928,51.8171 -87.22754,68.7099 39.958351,8.447 69.034168,25.0965 87.22754,49.9488 18.192008,24.8528 27.9380923,61.3194 29.2382816,109.3999 l 3.8984375,99.8974 c -7.153e-4,0.6498 0.1617194,1.462 0.4873047,2.4366 0.9738926,28.5885 7.7961514,43.5325 20.4667972,44.832 l 0,26.8017 -232.444341,0 c -4.2238,-17.218 -7.39128,-32.2433 -9.50244,-45.0756 -2.11214,-12.8323 -3.16797,-22.8221 -3.16748,-29.9693 l 0,-71.6338 c -4.9e-4,-37.0349 -7.31005,-63.1057 -21.92871,-78.2124 -14.61959,-15.1062 -39.95941,-22.6594 -76.01953,-22.6596 l -97.94824,0 0,247.5507 z"
         style="font-size:998px;fill:#555555;fill-opacity:1;font-family:Swis721 Blk BT;-inkscape-font-specification:Swis721 Blk BT"
         id="path5192"
         inkscape:connector-curvature="0" />
      <path
         d="m 279.09375,-2491.6851 -208.566406,0 0,-717.7998 280.687496,0 99.41016,358.169 c 1.29903,4.8734 3.89799,16.0002 7.79687,33.3804 3.89798,17.3808 9.42076,41.3399 16.56836,71.8774 4.5477,-24.0401 8.77101,-45.0754 12.66993,-63.106 3.89794,-18.0299 7.30907,-31.5932 10.23339,-40.6899 l 101.84668,-359.6309 280.2002,0 0,717.7998 -208.56641,0 1.94922,-353.2959 c -6.7e-4,-21.441 0.0805,-42.3139 0.24365,-62.6186 0.16177,-20.3039 0.40542,-41.3392 0.73096,-63.106 -7.79754,37.0356 -17.21875,77.4819 -28.26367,121.3389 l -1.46191,6.335 -88.68946,351.3466 -160.81054,0 -89.66407,-343.5498 c -4.2236,-15.5934 -8.44691,-33.4612 -12.66992,-53.6035 -4.22359,-20.1415 -9.74637,-47.4305 -16.56836,-81.8672 0.97434,30.8631 1.70529,57.34 2.19287,79.4307 0.48703,22.0915 0.73068,39.7969 0.73096,53.1162 z"
         style="font-size:998px;fill:#555555;fill-opacity:1;font-family:Swis721 Blk BT;-inkscape-font-specification:Swis721 Blk BT"
         id="path5194"
         inkscape:connector-curvature="0" />
      <path
         d="m 1200.1406,-2737.2866 144.7295,0 -71.6338,-248.5254 z m -296.28123,245.6015 252.42383,-717.7998 233.4189,0 252.4239,717.7998 -228.5459,0 -26.8018,-95.0244 -228.5459,0 -27.7763,95.0244 z"
         style="font-size:998px;fill:#555555;fill-opacity:1;font-family:Swis721 Blk BT;-inkscape-font-specification:Swis721 Blk BT"
         id="path5196"
         inkscape:connector-curvature="0" />
      <path
         d="m 1666.0449,-2491.6851 0,-717.7998 218.7998,0 201.2569,333.8037 c 6.172,9.4216 12.7506,22.7413 19.7358,39.959 6.9842,17.2185 14.375,38.0101 22.1724,62.375 -1.9498,-12.6696 -3.4117,-26.639 -4.3858,-41.9082 -0.9751,-15.2685 -1.4624,-33.7861 -1.4619,-55.5527 l 0,-338.6768 219.7744,0 0,717.7998 -219.7744,0 -201.2568,-331.3671 c -6.1729,-9.7458 -12.9139,-23.5528 -20.2232,-41.4209 -7.3098,-17.8675 -14.7006,-38.3343 -22.1723,-61.4004 2.2738,12.6703 3.8981,25.9087 4.873,39.7153 0.9743,13.8073 1.4616,33.2183 1.4619,58.2329 l 0,336.2402 z"
         style="font-size:998px;fill:#555555;fill-opacity:1;font-family:Swis721 Blk BT;-inkscape-font-specification:Swis721 Blk BT"
         id="path5198"
         inkscape:connector-curvature="0" />
      <path
         d="m 2437.4888,-2491.6851 0,-717.7998 218.7998,0 201.2568,333.8037 c 6.172,9.4216 12.7506,22.7413 19.7359,39.959 6.9841,17.2185 14.3749,38.0101 22.1723,62.375 -1.9497,-12.6696 -3.4116,-26.639 -4.3857,-41.9082 -0.9752,-15.2685 -1.4625,-33.7861 -1.4619,-55.5527 l 0,-338.6768 219.7744,0 0,717.7998 -219.7744,0 -201.2569,-331.3671 c -6.1728,-9.7458 -12.9139,-23.5528 -20.2231,-41.4209 -7.3099,-17.8675 -14.7007,-38.3343 -22.1724,-61.4004 2.2738,12.6703 3.8982,25.9087 4.8731,39.7153 0.9743,13.8073 1.4616,33.2183 1.4619,58.2329 l 0,336.2402 z"
         style="font-size:998px;fill:#555555;fill-opacity:1;font-family:Swis721 Blk BT;-inkscape-font-specification:Swis721 Blk BT"
         id="path5200"
         inkscape:connector-curvature="0" />
      <path
         d="m 3300.0591,-3193.4038 0,274.3525 -125.7246,0 0,-274.3525 z"
         style="font-size:998px;fill:#555555;fill-opacity:1;font-family:Swis721 Blk BT;-inkscape-font-specification:Swis721 Blk BT"
         id="path5202"
         inkscape:connector-curvature="0" />
      <path
         d="m 3324.9526,-2715.3579 224.1602,0 c 6.1723,25.9898 17.3803,44.6698 33.624,56.04 16.2432,11.3706 40.446,17.0558 72.6084,17.0557 26.9638,1e-4 48.1615,-4.6292 63.5933,-13.8882 15.4308,-9.2586 23.1465,-22.0097 23.1469,-38.2534 -4e-4,-25.9894 -32.3249,-47.1059 -96.9736,-63.3496 -12.9951,-3.2484 -22.9036,-5.685 -29.7256,-7.3096 -52.954,-13.6442 -95.1058,-26.0705 -126.4555,-37.2788 -31.3501,-11.2077 -54.1722,-21.6847 -68.4663,-31.4311 -27.6141,-19.8167 -48.3245,-43.5322 -62.1314,-71.1465 -13.807,-27.6135 -20.7105,-59.1259 -20.7104,-94.5371 -1e-4,-71.1459 26.8016,-127.0235 80.4052,-167.6329 53.6034,-40.608 127.3487,-60.9123 221.2364,-60.913 92.2625,7e-4 164.8709,19.4116 217.8252,58.2329 52.9531,38.8225 82.8411,94.4564 89.664,166.9018 l -218.7998,0 c -3.574,-21.116 -12.914,-36.8721 -28.02,-47.2685 -15.1068,-10.3953 -36.6294,-15.5932 -64.5679,-15.5938 -24.6904,6e-4 -43.0455,4.0615 -55.0654,12.1826 -12.0205,8.1223 -18.0306,20.4674 -18.0303,37.0352 -3e-4,23.716 31.5121,43.533 94.5371,59.4512 5.5224,1.6248 9.7457,2.7618 12.67,3.4111 9.0959,2.2745 22.9029,5.6857 41.4208,10.2334 83.4911,21.117 138.0692,40.2843 163.7344,57.5019 31.8366,21.117 55.0648,45.1573 69.6846,72.1211 14.6185,26.9645 21.928,58.8017 21.9287,95.5118 -7e-4,79.2683 -27.6958,140.1814 -83.0854,182.7392 -55.3909,42.558 -134.7402,63.8369 -238.0484,63.8369 -95.1871,0 -170.638,-21.2789 -226.353,-63.8369 -55.7153,-42.5578 -86.9839,-102.4963 -93.8062,-179.8154 z"
         style="font-size:998px;fill:#555555;fill-opacity:1;font-family:Swis721 Blk BT;-inkscape-font-specification:Swis721 Blk BT"
         id="path5204"
         inkscape:connector-curvature="0" />
    </g>
    <g
       transform="matrix(0.03773663,0,0,0.03773663,403.85078,1384.5308)"
       style="font-size:40px;font-style:normal;font-variant:normal;font-weight:normal;font-stretch:normal;line-height:125%;letter-spacing:-41.38000106999999900px;word-spacing:0px;fill:#555555;fill-opacity:1;stroke:none;display:inline;font-family:Swis721 BlkEx BT;-inkscape-font-specification:Swis721 BlkEx BT"
       id="text4858-7"
       inkscape:export-filename="C:\Users\Sam Herrmann\Documents\Graphic Projects\Herrmann's Timber-Frame Homes\Logo\text4858.png"
       inkscape:export-xdpi="600"
       inkscape:export-ydpi="600" />
    <g
       transform="matrix(0.03773663,0,0,0.03773663,40.252222,1443.0754)"
       style="font-size:40px;font-style:normal;font-variant:normal;font-weight:normal;font-stretch:normal;line-height:125%;letter-spacing:-41.38000106999999900px;word-spacing:0px;fill:#555555;fill-opacity:1;stroke:none;display:inline;font-family:Swis721 BlkEx BT;-inkscape-font-specification:Swis721 BlkEx BT"
       id="text4858-1"
       inkscape:export-filename="C:\Users\Sam Herrmann\Documents\Graphic Projects\Herrmann's Timber-Frame Homes\Logo\text4858.png"
       inkscape:export-xdpi="600"
       inkscape:export-ydpi="600" />
    <g
       style="font-size:65px;font-style:normal;font-variant:normal;font-weight:normal;font-stretch:normal;line-height:125%;letter-spacing:0px;word-spacing:0px;fill:#555555;fill-opacity:1;stroke:none;font-family:Swis721 Blk BT;-inkscape-font-specification:Swis721 Blk BT"
       id="text4388"
       transform="matrix(0.30189305,0,0,0.30189305,191.21889,949.93622)"
       inkscape:export-filename="C:\Users\Sam Herrmann\Documents\Graphic Projects\Herrmann's Timber-Frame Homes\Logo\text4858.png"
       inkscape:export-xdpi="600"
       inkscape:export-ydpi="600">
      <path
         d="m 443.69965,1368.424 0,-34.4361 -13.45704,0 0,-12.3144 41.64063,0 0,12.3144 -13.17139,0 0,34.4361 z"
         style="fill:#555555;fill-opacity:1"
         id="path4401"
         inkscape:connector-curvature="0" />
      <path
         d="m 476.64398,1330.4015 0,-9.8706 13.83789,0 0,9.8706 z m 0,38.0225 0,-34.4996 13.83789,0 0,34.4996 z"
         style="fill:#555555;fill-opacity:1"
         id="path4403"
         inkscape:connector-curvature="0" />
      <path
         d="m 498.28949,1368.424 0,-34.4996 12.47314,0 0,5.0464 c 1.52342,-2.0312 3.23729,-3.5335 5.14161,-4.5068 1.90427,-0.9733 4.09421,-1.4599 6.56982,-1.46 2.26397,1e-4 4.21587,0.4761 5.85571,1.4283 1.63978,0.9521 3.10503,2.465 4.39575,4.5385 1.67151,-2.0735 3.50175,-3.5969 5.49073,-4.5703 1.98888,-0.9733 4.23172,-1.4599 6.72851,-1.4599 4.06245,0 7.21511,1.0473 9.45801,3.142 2.24278,2.0948 3.3642,5.0359 3.36426,8.8233 l 0,23.5181 -13.52051,0 0,-18.4717 c -5e-5,-2.1582 -0.36504,-3.724 -1.09497,-4.6973 -0.73003,-0.9733 -1.90963,-1.4599 -3.53882,-1.46 -1.67159,10e-5 -2.8988,0.5079 -3.68164,1.5235 -0.78292,1.0156 -1.17436,2.6025 -1.17432,4.7607 l 0,18.3448 -13.45703,0 0,-17.9957 c -2e-5,-2.3697 -0.37559,-4.0677 -1.12671,-5.0939 -0.75116,-1.0262 -1.98366,-1.5393 -3.69751,-1.5394 -1.52345,10e-5 -2.6819,0.5185 -3.47534,1.5552 -0.79347,1.0368 -1.1902,2.5497 -1.19018,4.5386 l 0,18.5352 z"
         style="fill:#555555;fill-opacity:1"
         id="path4405"
         inkscape:connector-curvature="0" />
      <path
         d="m 578.07953,1351.5392 c -2e-5,2.4967 0.49721,4.4486 1.4917,5.8557 0.99444,1.4071 2.38035,2.1106 4.15771,2.1106 1.75616,0 3.1262,-0.6982 4.11011,-2.0947 0.98386,-1.3965 1.4758,-3.3537 1.47583,-5.8716 -3e-5,-2.7295 -0.45494,-4.7449 -1.36475,-6.0462 -0.90985,-1.3012 -2.31691,-1.9518 -4.22119,-1.9519 -1.92547,10e-5 -3.34841,0.656 -4.2688,1.9678 -0.92042,1.3119 -1.38063,3.322 -1.38061,6.0303 z m -13.2666,16.8848 0,-46.7505 13.39355,0 0,15.8691 c 1.35415,-1.5234 2.86172,-2.6713 4.52271,-3.4436 1.66094,-0.7723 3.44358,-1.1584 5.3479,-1.1584 4.52796,0 8.16199,1.6715 10.9021,5.0146 2.74003,3.3431 4.11006,7.7971 4.1101,13.3618 -4e-5,5.5225 -1.35949,9.9606 -4.07836,13.3142 -2.71895,3.3537 -6.30009,5.0305 -10.74341,5.0305 -2.3275,0 -4.42223,-0.4496 -6.28418,-1.3488 -1.862,-0.8993 -3.53355,-2.2693 -5.01465,-4.1101 l 0,4.2212 z"
         style="fill:#555555;fill-opacity:1"
         id="path4407"
         inkscape:connector-curvature="0" />
      <path
         d="m 620.64056,1347.2863 12.21924,0 c -0.14814,-2.1371 -0.74058,-3.7398 -1.77734,-4.8084 -1.03681,-1.0685 -2.52851,-1.6028 -4.4751,-1.6028 -1.79852,0 -3.22145,0.566 -4.2688,1.698 -1.04738,1.132 -1.61338,2.7031 -1.698,4.7132 z m 11.48926,10.9179 13.13965,0 c -0.95219,3.7663 -3.04162,6.6175 -6.26831,8.5535 -3.22676,1.936 -7.48497,2.904 -12.77466,2.904 -5.92449,0 -10.62704,-1.6451 -14.10766,-4.9353 -3.48064,-3.2902 -5.22095,-7.7176 -5.22095,-13.2824 0,-5.7975 1.77734,-10.3731 5.33203,-13.7268 3.55468,-3.3537 8.38947,-5.0305 14.50439,-5.0306 6.13604,10e-5 10.94439,1.825 14.42505,5.4749 3.48059,3.6499 5.22091,8.7122 5.22095,15.1868 l 0,0.8252 -25.73975,0.032 c 0.0635,2.2005 0.64533,3.8985 1.74561,5.094 1.10024,1.1955 2.63426,1.7932 4.60205,1.7932 1.33298,0 2.44382,-0.2486 3.33252,-0.7458 0.88865,-0.4973 1.49167,-1.2114 1.80908,-2.1424 z"
         style="fill:#555555;fill-opacity:1"
         id="path4409"
         inkscape:connector-curvature="0" />
      <path
         d="m 652.0932,1368.424 0,-34.4996 12.66357,0 0,6.2842 c 0.90982,-2.4967 2.21638,-4.3216 3.91968,-5.4748 1.70327,-1.1532 3.97255,-1.7297 6.80786,-1.7298 l 1.2378,0 0,13.6792 c -0.50784,-0.042 -0.9945,-0.079 -1.45996,-0.1111 -0.46553,-0.032 -0.90986,-0.048 -1.33301,-0.048 -2.77183,10e-5 -4.80837,0.6242 -6.10962,1.8726 -1.30129,1.2484 -1.95192,3.2056 -1.95191,5.8716 l 0,14.1553 z"
         style="fill:#555555;fill-opacity:1"
         id="path4411"
         inkscape:connector-curvature="0" />
      <path
         d="m 681.1972,1357.0616 0,-12.2192 16.37696,0 0,12.2192 z"
         style="fill:#555555;fill-opacity:1"
         id="path4413"
         inkscape:connector-curvature="0" />
      <path
         d="m 705.15961,1368.424 0,-46.7505 35.35644,0 0,11.7749 -20.34424,0 0,7.2363 16.18653,0 0,11.2988 -16.18653,0 0,16.4405 z"
         style="fill:#555555;fill-opacity:1"
         id="path4415"
         inkscape:connector-curvature="0" />
      <path
         d="m 745.65765,1368.424 0,-34.4996 12.66358,0 0,6.2842 c 0.90981,-2.4967 2.21637,-4.3216 3.91968,-5.4748 1.70326,-1.1532 3.97255,-1.7297 6.80786,-1.7298 l 1.23779,0 0,13.6792 c -0.50784,-0.042 -0.99449,-0.079 -1.45996,-0.1111 -0.46552,-0.032 -0.90986,-0.048 -1.33301,-0.048 -2.77183,10e-5 -4.80837,0.6242 -6.10962,1.8726 -1.30129,1.2484 -1.95192,3.2056 -1.9519,5.8716 l 0,14.1553 z"
         style="fill:#555555;fill-opacity:1"
         id="path4417"
         inkscape:connector-curvature="0" />
      <path
         d="m 798.59711,1353.0309 c -1.31188,0.5078 -3.05748,1.0474 -5.23682,1.6186 -3.42775,0.9099 -5.14162,2.1265 -5.1416,3.6499 -2e-5,0.9734 0.33852,1.7351 1.01562,2.2852 0.67707,0.5501 1.6398,0.8252 2.88819,0.8252 2.28513,0 3.95139,-0.529 4.99878,-1.5869 1.04733,-1.058 1.57101,-2.7401 1.57104,-5.0464 -3e-5,-0.4867 -0.005,-0.8516 -0.0159,-1.095 -0.0106,-0.2433 -0.0371,-0.4602 -0.0793,-0.6506 z m 1.26953,15.3931 -0.85694,-3.3008 c -1.75621,1.5446 -3.64992,2.6871 -5.68115,3.4277 -2.03127,0.7406 -4.31642,1.1108 -6.85547,1.1108 -3.89324,0 -6.90308,-0.9574 -9.02954,-2.8723 -2.12647,-1.9148 -3.1897,-4.6179 -3.18969,-8.1091 -1e-5,-3.4066 1.04735,-5.9245 3.14209,-7.5537 2.09471,-1.6292 6.05142,-2.8141 11.87011,-3.5547 0.74054,-0.1058 1.73501,-0.2221 2.9834,-0.3491 4.33754,-0.4655 6.50632,-1.5869 6.50635,-3.3643 -3e-5,-0.9944 -0.39676,-1.7191 -1.19019,-2.1741 -0.79348,-0.4548 -2.04714,-0.6823 -3.76098,-0.6823 -1.41767,0 -2.50735,0.2804 -3.26905,0.841 -0.76173,0.5608 -1.20607,1.423 -1.333,2.5867 l -13.39356,0 c 0.0635,-3.872 1.65039,-6.7972 4.76074,-8.7756 3.11034,-1.9783 7.68065,-2.9675 13.71094,-2.9676 2.83526,10e-5 5.45367,0.2646 7.85523,0.7935 2.40149,0.529 4.26876,1.2378 5.6018,2.1265 1.6292,1.1003 2.77177,2.3433 3.42774,3.7292 0.65588,1.3859 0.98384,3.3696 0.98388,5.9509 l 0,19.2334 c -4e-5,0.6348 0.12692,1.2008 0.38086,1.698 0.25387,0.4973 0.62415,0.9046 1.11084,1.222 l 0,0.9839 z"
         style="fill:#555555;fill-opacity:1"
         id="path4419"
         inkscape:connector-curvature="0" />
      <path
         d="m 820.11566,1368.424 0,-34.4996 12.47315,0 0,5.0464 c 1.52342,-2.0312 3.23728,-3.5335 5.1416,-4.5068 1.90427,-0.9733 4.09421,-1.4599 6.56982,-1.46 2.26397,1e-4 4.21587,0.4761 5.85571,1.4283 1.63978,0.9521 3.10503,2.465 4.39576,4.5385 1.67151,-2.0735 3.50175,-3.5969 5.49072,-4.5703 1.98889,-0.9733 4.23172,-1.4599 6.72852,-1.4599 4.06244,0 7.21511,1.0473 9.458,3.142 2.24278,2.0948 3.3642,5.0359 3.36426,8.8233 l 0,23.5181 -13.52051,0 0,-18.4717 c -5e-5,-2.1582 -0.36504,-3.724 -1.09497,-4.6973 -0.73003,-0.9733 -1.90963,-1.4599 -3.53882,-1.46 -1.67159,10e-5 -2.8988,0.5079 -3.68164,1.5235 -0.78291,1.0156 -1.17435,2.6025 -1.17431,4.7607 l 0,18.3448 -13.45703,0 0,-17.9957 c -3e-5,-2.3697 -0.3756,-4.0677 -1.12671,-5.0939 -0.75117,-1.0262 -1.98367,-1.5393 -3.69751,-1.5394 -1.52346,10e-5 -2.68191,0.5185 -3.47535,1.5552 -0.79347,1.0368 -1.1902,2.5497 -1.19018,4.5386 l 0,18.5352 z"
         style="fill:#555555;fill-opacity:1"
         id="path4421"
         inkscape:connector-curvature="0" />
      <path
         d="m 898.54095,1347.2863 12.21924,0 c -0.14814,-2.1371 -0.74058,-3.7398 -1.77734,-4.8084 -1.03681,-1.0685 -2.52851,-1.6028 -4.4751,-1.6028 -1.79852,0 -3.22145,0.566 -4.2688,1.698 -1.04738,1.132 -1.61338,2.7031 -1.698,4.7132 z m 11.48926,10.9179 13.13965,0 c -0.95219,3.7663 -3.04162,6.6175 -6.26831,8.5535 -3.22676,1.936 -7.48497,2.904 -12.77466,2.904 -5.92449,0 -10.62704,-1.6451 -14.10766,-4.9353 -3.48064,-3.2902 -5.22095,-7.7176 -5.22095,-13.2824 0,-5.7975 1.77734,-10.3731 5.33203,-13.7268 3.55468,-3.3537 8.38947,-5.0305 14.50439,-5.0306 6.13604,10e-5 10.94439,1.825 14.42505,5.4749 3.4806,3.6499 5.22091,8.7122 5.22095,15.1868 l 0,0.8252 -25.73975,0.032 c 0.0635,2.2005 0.64533,3.8985 1.74561,5.094 1.10024,1.1955 2.63426,1.7932 4.60205,1.7932 1.33299,0 2.44382,-0.2486 3.33252,-0.7458 0.88865,-0.4973 1.49167,-1.2114 1.80908,-2.1424 z"
         style="fill:#555555;fill-opacity:1"
         id="path4423"
         inkscape:connector-curvature="0" />
      <path
         d="m 952.08344,1368.424 0,-46.7505 15.0122,0 0,15.8691 13.99658,0 0,-15.8691 15.01221,0 0,46.7505 -15.01221,0 0,-18.1226 -13.99658,0 0,18.1226 z"
         style="fill:#555555;fill-opacity:1"
         id="path4425"
         inkscape:connector-curvature="0" />
      <path
         d="m 1016.2265,1351.1266 c 0,3.195 0.439,5.4907 1.3171,6.8872 0.8781,1.3965 2.3222,2.0947 4.3323,2.0947 2.0101,0 3.4648,-0.7035 4.364,-2.1106 0.8993,-1.407 1.3489,-3.6975 1.3489,-6.8713 0,-3.1527 -0.4496,-5.4219 -1.3489,-6.8079 -0.8992,-1.3859 -2.3539,-2.0788 -4.364,-2.0788 -2.0101,0 -3.4542,0.6877 -4.3323,2.063 -0.8781,1.3753 -1.3171,3.6499 -1.3171,6.8237 z m -13.8696,0 c 0,-5.7129 1.735,-10.2144 5.2051,-13.5047 3.47,-3.2901 8.2413,-4.9352 14.3139,-4.9353 6.0726,10e-5 10.8386,1.6452 14.2981,4.9353 3.4594,3.2903 5.1892,7.7918 5.1892,13.5047 0,5.7552 -1.735,10.2832 -5.2051,13.584 -3.47,3.3008 -8.2308,4.9511 -14.2822,4.9511 -6.0514,0 -10.8175,-1.6503 -14.2981,-4.9511 -3.4806,-3.3008 -5.2209,-7.8288 -5.2209,-13.584 z"
         style="fill:#555555;fill-opacity:1"
         id="path4427"
         inkscape:connector-curvature="0" />
      <path
         d="m 1046.9809,1368.424 0,-34.4996 12.4731,0 0,5.0464 c 1.5235,-2.0312 3.2373,-3.5335 5.1416,-4.5068 1.9043,-0.9733 4.0943,-1.4599 6.5699,-1.46 2.2639,1e-4 4.2158,0.4761 5.8557,1.4283 1.6398,0.9521 3.105,2.465 4.3957,4.5385 1.6715,-2.0735 3.5018,-3.5969 5.4908,-4.5703 1.9888,-0.9733 4.2317,-1.4599 6.7285,-1.4599 4.0624,0 7.2151,1.0473 9.458,3.142 2.2428,2.0948 3.3642,5.0359 3.3642,8.8233 l 0,23.5181 -13.5205,0 0,-18.4717 c 0,-2.1582 -0.365,-3.724 -1.0949,-4.6973 -0.7301,-0.9733 -1.9097,-1.4599 -3.5389,-1.46 -1.6716,10e-5 -2.8988,0.5079 -3.6816,1.5235 -0.7829,1.0156 -1.1744,2.6025 -1.1743,4.7607 l 0,18.3448 -13.4571,0 0,-17.9957 c 0,-2.3697 -0.3755,-4.0677 -1.1267,-5.0939 -0.7511,-1.0262 -1.9836,-1.5393 -3.6975,-1.5394 -1.5234,10e-5 -2.6819,0.5185 -3.4753,1.5552 -0.7935,1.0368 -1.1902,2.5497 -1.1902,4.5386 l 0,18.5352 z"
         style="fill:#555555;fill-opacity:1"
         id="path4429"
         inkscape:connector-curvature="0" />
      <path
         d="m 1125.4062,1347.2863 12.2192,0 c -0.1481,-2.1371 -0.7406,-3.7398 -1.7773,-4.8084 -1.0368,-1.0685 -2.5285,-1.6028 -4.4751,-1.6028 -1.7985,0 -3.2215,0.566 -4.2688,1.698 -1.0474,1.132 -1.6134,2.7031 -1.698,4.7132 z m 11.4892,10.9179 13.1397,0 c -0.9522,3.7663 -3.0416,6.6175 -6.2683,8.5535 -3.2268,1.936 -7.485,2.904 -12.7747,2.904 -5.9245,0 -10.627,-1.6451 -14.1076,-4.9353 -3.4807,-3.2902 -5.221,-7.7176 -5.221,-13.2824 0,-5.7975 1.7774,-10.3731 5.332,-13.7268 3.5547,-3.3537 8.3895,-5.0305 14.5044,-5.0306 6.1361,10e-5 10.9444,1.825 14.4251,5.4749 3.4806,3.6499 5.2209,8.7122 5.2209,15.1868 l 0,0.8252 -25.7397,0.032 c 0.063,2.2005 0.6453,3.8985 1.7456,5.094 1.1002,1.1955 2.6343,1.7932 4.602,1.7932 1.333,0 2.4439,-0.2486 3.3326,-0.7458 0.8886,-0.4973 1.4916,-1.2114 1.809,-2.1424 z"
         style="fill:#555555;fill-opacity:1"
         id="path4431"
         inkscape:connector-curvature="0" />
      <path
         d="m 1155.0815,1357.5695 13.3301,0 c -10e-5,1.4599 0.3755,2.5496 1.1267,3.269 0.7511,0.7194 1.8778,1.0791 3.3801,1.0791 1.4388,0 2.5443,-0.2433 3.3166,-0.73 0.7723,-0.4866 1.1585,-1.1954 1.1585,-2.1264 0,-1.5446 -1.7033,-2.6872 -5.1099,-3.4278 -0.2962,-0.063 -0.529,-0.1163 -0.6982,-0.1587 -6.4535,-1.3753 -10.6641,-2.8564 -12.6318,-4.4433 -1.9678,-1.5869 -2.9517,-3.9144 -2.9517,-6.9824 0,-3.7028 1.4441,-6.5222 4.3323,-8.4583 2.8881,-1.936 7.104,-2.904 12.6477,-2.9041 5.1415,10e-5 9.1247,0.9099 11.9494,2.7295 2.8247,1.8197 4.4486,4.5281 4.8719,8.125 l -12.3462,0 c -0.1058,-1.0367 -0.5555,-1.8619 -1.3489,-2.4755 -0.7935,-0.6136 -1.7932,-0.9204 -2.9993,-0.9205 -1.206,10e-5 -2.1265,0.2064 -2.7612,0.6189 -0.6348,0.4127 -0.9522,1.0104 -0.9522,1.7933 0,1.3753 1.5552,2.3909 4.6656,3.0468 0.8251,0.1693 1.4493,0.2963 1.8725,0.3809 6.263,1.4388 10.3361,2.9675 12.2193,4.5862 1.8831,1.6186 2.8246,3.9937 2.8247,7.1252 -10e-5,3.9567 -1.5394,6.9401 -4.6179,8.9502 -3.0787,2.0101 -7.6331,3.0151 -13.6634,3.0151 -5.5859,0 -9.8441,-1.005 -12.7746,-3.0151 -2.9305,-2.0101 -4.5439,-5.0358 -4.8401,-9.0771 z"
         style="fill:#555555;fill-opacity:1"
         id="path4433"
         inkscape:connector-curvature="0" />
    </g>
  </g>
  <g
     inkscape:groupmode="layer"
     id="layer3"
     inkscape:label="Frame"
     style="display:inline"
     transform="translate(-266.33024,-1314.0584)">
    <path
       style="fill:#555555;fill-opacity:1;fill-rule:nonzero"
       d="m 293.83419,1322.8974 -24.11369,25.2681 0,0.9033 1.02832,0 2.32905,-2.4587 0,0.691 -0.33491,0 0,1.052 4.49303,0 0,10.3408 0,0.9434 33.19997,0 0,-0.9434 0,-10.3408 4.51898,0 0,-1.052 -0.3585,0 0,-0.6875 2.32788,2.4613 1.02712,0 0,-0.8999 -24.11725,-25.2776 z m 0.0131,1.7831 0.26532,0.2806 -0.53184,0 0.26652,-0.2806 z m 0.81604,0.8632 8.40819,8.8881 -0.70402,0 0,1.4741 -7.92705,0 0,-9.294 0.22288,0 0,-1.0682 z m -1.66042,0.027 0,1.0403 0.23112,0 0,9.2936 -7.92939,0 0,-1.4741 -0.69339,0 8.39166,-8.8598 z m 10.85164,9.6865 0.61207,0.6474 -0.61207,0 0,-0.6474 z m -20.03814,0.013 0,0.6346 -0.60144,0 0.60144,-0.6346 z m -1.59437,1.6827 0.033,0 0,9.466 -3.64042,-5.6569 3.60738,-3.8091 z m 1.08257,0 4.79609,0 0,0.9458 -4.79609,0 0,-0.9458 z m 5.84564,0 1.26654,0 0,10.347 -1.26654,0 0,-10.347 z m 2.31608,0 4.74305,0 0,0.9554 -4.74305,0 0,-0.9554 z m 5.79258,0 1.26534,0 0,10.347 -1.26534,0 0,-10.347 z m 2.31376,0 4.79369,0 0,0.9541 -4.79369,0 0,-0.9541 z m 5.84323,0 0.0425,0 3.58615,3.7914 -3.62861,5.6687 0,-9.4601 z m -5.84323,1.887 4.79369,0 0,4.1816 -4.79369,0 0,-4.1816 z m -8.10634,0 4.74305,0 0,3.1225 -4.74305,0 0,-3.1225 z m -8.16172,0.011 4.79609,0 0,4.1697 -4.79609,0 0,-4.1697 z m 26.07601,3.2549 0,5.1932 -3.37862,0 3.37862,-5.1932 z m 1.05545,0.1083 3.41987,3.6156 -0.62501,0 0,1.4693 -2.79486,0 0,-5.0849 z m -33.19998,0 0,5.0815 -2.79251,0 0,-1.4694 -0.62856,0 3.42107,-3.6121 z m 1.0519,0.048 3.27482,5.0331 -3.27482,0 0,-5.0331 z m 13.17834,0.7642 4.74305,0 0,4.2689 -4.74305,0 0,-4.2689 z m 8.10634,1.0213 4.79369,0 0,3.2476 -4.79369,0 0,-3.2476 z m -16.26806,0.01 4.79609,0 0,3.2405 -4.79609,0 0,-3.2405 z m -5.01662,4.2925 3.36917,0 -3.36917,8.7302 0,-8.7302 z m 5.01662,0 4.79609,0 0,0.9422 -4.79609,0 0,-0.9422 z m 5.84564,0 1.26653,0 0,10.3409 -1.26653,0 0,-10.3409 z m 2.31608,0 4.74305,0 0,0.9481 -4.74305,0 0,-0.9481 z m 5.79258,0 1.26536,0 0,10.3409 -1.26536,0 0,-10.3409 z m 2.31376,0 4.79369,0 0,0.9363 -4.79369,0 0,-0.9363 z m 6.46354,0 3.34441,0 0,8.6663 -3.34441,-8.6663 z m -0.62031,1.3066 3.37863,9.0343 -3.37863,0 0,-9.0343 z m -23.16083,0.064 0,8.9706 -3.35385,0 3.35385,-8.9706 z m 9.21126,0.5035 4.74305,0 0,3.237 -4.74305,0 0,-3.237 z m 8.10634,0 4.79369,0 0,4.2854 -4.79369,0 0,-4.2854 z m -16.26806,0 4.79609,0 0,4.2817 -4.79609,0 0,-4.2817 z m 8.16172,4.1545 4.74305,0 0,4.3078 -4.74305,0 0,-4.3078 z m 8.10634,1.0519 4.79369,0 0,3.2559 -4.79369,0 0,-3.2559 z m -16.26806,0.047 4.79609,0 0,3.2099 -4.79609,0 0,-3.2099 z"
       id="rect3818"
       inkscape:connector-curvature="0"
       inkscape:export-filename="C:\Users\Sam Herrmann\Documents\Graphic Projects\Herrmann's Timber-Frame Homes\Logo\text4858.png"
       inkscape:export-xdpi="600"
       inkscape:export-ydpi="600" />
    <rect
       style="fill:#555555;fill-opacity:1;fill-rule:nonzero;display:inline"
       id="rect3818-7"
       width="33.200325"
       height="4.1435237"
       x="277.23596"
       y="1359.6375"
       inkscape:export-filename="C:\Users\Sam Herrmann\Documents\Graphic Projects\Herrmann's Timber-Frame Homes\Logo\text4858.png"
       inkscape:export-xdpi="600"
       inkscape:export-ydpi="600" />
  </g>
  <g
     inkscape:groupmode="layer"
     id="layer1"
     inkscape:label="windows"
     style="display:none"
     transform="translate(-42.29899,-125.01954)">
    <rect
       transform="translate(-224.03125,-1189.0388)"
       style="fill:#000000;fill-opacity:1;fill-rule:nonzero;stroke:none;display:inline"
       id="rect4202-4-8-5"
       width="17.878456"
       height="7.4917669"
       x="367.66406"
       y="1360.7781" />
    <rect
       transform="translate(-224.03125,-1189.0388)"
       style="fill:#000000;fill-opacity:1;fill-rule:nonzero;stroke:none;display:inline"
       id="rect4202-1"
       width="17.878456"
       height="7.4917669"
       x="294.20679"
       y="1360.8093" />
    <rect
       transform="translate(-224.03125,-1189.0388)"
       style="fill:#000000;fill-opacity:1;fill-rule:nonzero;stroke:none;display:inline"
       id="rect4202-4-1"
       width="17.878456"
       height="7.4917669"
       x="331.10718"
       y="1361.0167" />
  </g>
</svg>
