<?xml version="1.0" encoding="UTF-8" standalone="no"?>
<!-- Created with Inkscape (http://www.inkscape.org/) -->

<svg
   xmlns:dc="http://purl.org/dc/elements/1.1/"
   xmlns:cc="http://creativecommons.org/ns#"
   xmlns:rdf="http://www.w3.org/1999/02/22-rdf-syntax-ns#"
   xmlns:svg="http://www.w3.org/2000/svg"
   xmlns="http://www.w3.org/2000/svg"
   xmlns:xlink="http://www.w3.org/1999/xlink"
   version="1.1"
   width="800"
   height="205.74049"
   id="svg2">
  <defs
     id="defs4">
    <linearGradient
       id="linearGradient4392">
      <stop
         id="stop4394"
         style="stop-color:#000000;stop-opacity:1"
         offset="0" />
      <stop
         id="stop4396"
         style="stop-color:#111111;stop-opacity:1"
         offset="1" />
    </linearGradient>
    <linearGradient
       id="linearGradient5045">
      <stop
         id="stop5047"
         style="stop-color:#000000;stop-opacity:1"
         offset="0" />
      <stop
         id="stop5049"
         style="stop-color:#333333;stop-opacity:1"
         offset="1" />
    </linearGradient>
    <linearGradient
       x1="3731.5034"
       y1="975.40082"
       x2="3735.5442"
       y2="1359.2588"
       id="linearGradient5051"
       xlink:href="#linearGradient5045"
       gradientUnits="userSpaceOnUse"
       gradientTransform="matrix(0.25,0,0,0.25,195.02344,1028.1243)" />
    <filter
       x="-0.1"
       width="1.1900001"
       color-interpolation-filters="sRGB"
       id="filter4503">
      <feGaussianBlur
         result="result8"
         stdDeviation="34.100000000000001"
         id="feGaussianBlur4505" />
      <feOffset
         result="result11"
         dy="57"
         dx="57"
         id="feOffset4507" />
      <feComposite
         in2="result11"
         operator="in"
         in="SourceGraphic"
         result="result6"
         id="feComposite4509" />
      <feFlood
         flood-color="rgb(0,0,0)"
         flood-opacity="1"
         in="result6"
         result="result10"
         id="feFlood4511" />
      <feBlend
         in2="result10"
         mode="normal"
         in="result6"
         result="result12"
         id="feBlend4513" />
      <feComposite
         in2="SourceGraphic"
         operator="in"
         result="result2"
         id="feComposite4515" />
    </filter>
    <filter
       color-interpolation-filters="sRGB"
       id="filter5246">
      <feGaussianBlur
         id="feGaussianBlur5248"
         stdDeviation="24.527735" />
    </filter>
    <linearGradient
       x1="3731.5034"
       y1="975.40082"
       x2="3735.5442"
       y2="1359.2588"
       id="linearGradient3102"
       xlink:href="#linearGradient5045"
       gradientUnits="userSpaceOnUse"
       gradientTransform="matrix(0.125,0,0,0.125,227.52734,1199.4783)" />
    <linearGradient
       x1="3731.5034"
       y1="975.40082"
       x2="3735.5442"
       y2="1359.2588"
       id="linearGradient3041"
       xlink:href="#linearGradient5045"
       gradientUnits="userSpaceOnUse"
       gradientTransform="matrix(0.125,0,0,0.125,227.52734,1199.4783)" />
    <linearGradient
       x1="3731.5034"
       y1="975.40082"
       x2="3735.5442"
       y2="1359.2588"
       id="linearGradient3043"
       xlink:href="#linearGradient5045"
       gradientUnits="userSpaceOnUse"
       gradientTransform="matrix(0.125,0,0,0.125,227.52734,1199.4783)" />
    <linearGradient
       x1="3731.5034"
       y1="975.40082"
       x2="3735.5442"
       y2="1359.2588"
       id="linearGradient3045"
       xlink:href="#linearGradient5045"
       gradientUnits="userSpaceOnUse"
       gradientTransform="matrix(0.125,0,0,0.125,227.52734,1199.4783)" />
    <linearGradient
       x1="3731.5034"
       y1="975.40082"
       x2="3735.5442"
       y2="1359.2588"
       id="linearGradient3047"
       xlink:href="#linearGradient5045"
       gradientUnits="userSpaceOnUse"
       gradientTransform="matrix(0.125,0,0,0.125,227.52734,1199.4783)" />
    <linearGradient
       x1="3731.5034"
       y1="975.40082"
       x2="3735.5442"
       y2="1359.2588"
       id="linearGradient3049"
       xlink:href="#linearGradient5045"
       gradientUnits="userSpaceOnUse"
       gradientTransform="matrix(0.125,0,0,0.125,227.52734,1199.4783)" />
    <linearGradient
       x1="3731.5034"
       y1="975.40082"
       x2="3735.5442"
       y2="1359.2588"
       id="linearGradient3051"
       xlink:href="#linearGradient5045"
       gradientUnits="userSpaceOnUse"
       gradientTransform="matrix(0.125,0,0,0.125,227.52734,1199.4783)" />
    <linearGradient
       x1="3731.5034"
       y1="975.40082"
       x2="3735.5442"
       y2="1359.2588"
       id="linearGradient3053"
       xlink:href="#linearGradient5045"
       gradientUnits="userSpaceOnUse"
       gradientTransform="matrix(0.125,0,0,0.125,227.52734,1199.4783)" />
    <linearGradient
       x1="3731.5034"
       y1="975.40082"
       x2="3735.5442"
       y2="1359.2588"
       id="linearGradient3055"
       xlink:href="#linearGradient5045"
       gradientUnits="userSpaceOnUse"
       gradientTransform="matrix(0.125,0,0,0.125,227.52734,1199.4783)" />
    <linearGradient
       x1="3731.5034"
       y1="975.40082"
       x2="3735.5442"
       y2="1359.2588"
       id="linearGradient3057"
       xlink:href="#linearGradient5045"
       gradientUnits="userSpaceOnUse"
       gradientTransform="matrix(0.125,0,0,0.125,227.52734,1199.4783)" />
    <linearGradient
       x1="3731.5034"
       y1="975.40082"
       x2="3735.5442"
       y2="1359.2588"
       id="linearGradient3059"
       xlink:href="#linearGradient5045"
       gradientUnits="userSpaceOnUse"
       gradientTransform="matrix(0.125,0,0,0.125,227.52734,1199.4783)" />
    <linearGradient
       x1="3731.5034"
       y1="975.40082"
       x2="3735.5442"
       y2="1359.2588"
       id="linearGradient3061"
       xlink:href="#linearGradient5045"
       gradientUnits="userSpaceOnUse"
       gradientTransform="matrix(0.125,0,0,0.125,227.52734,1199.4783)" />
    <linearGradient
       x1="3731.5034"
       y1="975.40082"
       x2="3735.5442"
       y2="1359.2588"
       id="linearGradient3063"
       xlink:href="#linearGradient5045"
       gradientUnits="userSpaceOnUse"
       gradientTransform="matrix(0.125,0,0,0.125,227.52734,1199.4783)" />
    <linearGradient
       x1="3731.5034"
       y1="975.40082"
       x2="3735.5442"
       y2="1359.2588"
       id="linearGradient3065"
       xlink:href="#linearGradient5045"
       gradientUnits="userSpaceOnUse"
       gradientTransform="matrix(0.125,0,0,0.125,227.52734,1199.4783)" />
    <linearGradient
       x1="3731.5034"
       y1="975.40082"
       x2="3735.5442"
       y2="1359.2588"
       id="linearGradient3067"
       xlink:href="#linearGradient5045"
       gradientUnits="userSpaceOnUse"
       gradientTransform="matrix(0.125,0,0,0.125,227.52734,1199.4783)" />
    <linearGradient
       x1="3731.5034"
       y1="975.40082"
       x2="3735.5442"
       y2="1359.2588"
       id="linearGradient3069"
       xlink:href="#linearGradient5045"
       gradientUnits="userSpaceOnUse"
       gradientTransform="matrix(0.125,0,0,0.125,227.52734,1199.4783)" />
    <linearGradient
       x1="3731.5034"
       y1="975.40082"
       x2="3735.5442"
       y2="1359.2588"
       id="linearGradient3071"
       xlink:href="#linearGradient5045"
       gradientUnits="userSpaceOnUse"
       gradientTransform="matrix(0.125,0,0,0.125,227.52734,1199.4783)" />
    <linearGradient
       x1="3731.5034"
       y1="975.40082"
       x2="3735.5442"
       y2="1359.2588"
       id="linearGradient3073"
       xlink:href="#linearGradient5045"
       gradientUnits="userSpaceOnUse"
       gradientTransform="matrix(0.125,0,0,0.125,227.52734,1199.4783)" />
    <linearGradient
       x1="836.12189"
       y1="1320.3475"
       x2="836.00995"
       y2="1369.1379"
       id="linearGradient4398"
       xlink:href="#linearGradient5045"
       gradientUnits="userSpaceOnUse" />
    <linearGradient
       x1="836.12189"
       y1="1320.3475"
       x2="836.00995"
       y2="1369.1379"
       id="linearGradient4435"
       xlink:href="#linearGradient5045"
       gradientUnits="userSpaceOnUse" />
    <linearGradient
       x1="836.12189"
       y1="1320.3475"
       x2="836.00995"
       y2="1369.1379"
       id="linearGradient3147"
       xlink:href="#linearGradient5045"
       gradientUnits="userSpaceOnUse" />
    <linearGradient
       x1="836.12189"
       y1="1320.3475"
       x2="836.00995"
       y2="1369.1379"
       id="linearGradient3149"
       xlink:href="#linearGradient5045"
       gradientUnits="userSpaceOnUse" />
    <linearGradient
       x1="836.12189"
       y1="1320.3475"
       x2="836.00995"
       y2="1369.1379"
       id="linearGradient3151"
       xlink:href="#linearGradient5045"
       gradientUnits="userSpaceOnUse" />
    <linearGradient
       x1="836.12189"
       y1="1320.3475"
       x2="836.00995"
       y2="1369.1379"
       id="linearGradient3153"
       xlink:href="#linearGradient5045"
       gradientUnits="userSpaceOnUse" />
    <linearGradient
       x1="836.12189"
       y1="1320.3475"
       x2="836.00995"
       y2="1369.1379"
       id="linearGradient3155"
       xlink:href="#linearGradient5045"
       gradientUnits="userSpaceOnUse" />
    <linearGradient
       x1="836.12189"
       y1="1320.3475"
       x2="836.00995"
       y2="1369.1379"
       id="linearGradient3157"
       xlink:href="#linearGradient5045"
       gradientUnits="userSpaceOnUse" />
    <linearGradient
       x1="836.12189"
       y1="1320.3475"
       x2="836.00995"
       y2="1369.1379"
       id="linearGradient3159"
       xlink:href="#linearGradient5045"
       gradientUnits="userSpaceOnUse" />
    <linearGradient
       x1="836.12189"
       y1="1320.3475"
       x2="836.00995"
       y2="1369.1379"
       id="linearGradient3161"
       xlink:href="#linearGradient5045"
       gradientUnits="userSpaceOnUse" />
    <linearGradient
       x1="836.12189"
       y1="1320.3475"
       x2="836.00995"
       y2="1369.1379"
       id="linearGradient3163"
       xlink:href="#linearGradient5045"
       gradientUnits="userSpaceOnUse" />
    <linearGradient
       x1="836.12189"
       y1="1320.3475"
       x2="836.00995"
       y2="1369.1379"
       id="linearGradient3165"
       xlink:href="#linearGradient5045"
       gradientUnits="userSpaceOnUse" />
    <linearGradient
       x1="836.12189"
       y1="1320.3475"
       x2="836.00995"
       y2="1369.1379"
       id="linearGradient3167"
       xlink:href="#linearGradient5045"
       gradientUnits="userSpaceOnUse" />
    <linearGradient
       x1="836.12189"
       y1="1320.3475"
       x2="836.00995"
       y2="1369.1379"
       id="linearGradient3169"
       xlink:href="#linearGradient5045"
       gradientUnits="userSpaceOnUse" />
    <linearGradient
       x1="836.12189"
       y1="1320.3475"
       x2="836.00995"
       y2="1369.1379"
       id="linearGradient3171"
       xlink:href="#linearGradient5045"
       gradientUnits="userSpaceOnUse" />
    <linearGradient
       x1="836.12189"
       y1="1320.3475"
       x2="836.00995"
       y2="1369.1379"
       id="linearGradient3173"
       xlink:href="#linearGradient5045"
       gradientUnits="userSpaceOnUse" />
    <linearGradient
       x1="836.12189"
       y1="1320.3475"
       x2="836.00995"
       y2="1369.1379"
       id="linearGradient3175"
       xlink:href="#linearGradient5045"
       gradientUnits="userSpaceOnUse" />
    <linearGradient
       x1="836.12189"
       y1="1320.3475"
       x2="836.00995"
       y2="1369.1379"
       id="linearGradient3177"
       xlink:href="#linearGradient5045"
       gradientUnits="userSpaceOnUse" />
    <linearGradient
       x1="836.12189"
       y1="1320.3475"
       x2="836.00995"
       y2="1369.1379"
       id="linearGradient3179"
       xlink:href="#linearGradient5045"
       gradientUnits="userSpaceOnUse" />
  </defs>
  <metadata
     id="metadata7">
    <rdf:RDF>
      <cc:Work
         rdf:about="">
        <dc:format>image/svg+xml</dc:format>
        <dc:type
           rdf:resource="http://purl.org/dc/dcmitype/StillImage" />
        <dc:title></dc:title>
      </cc:Work>
    </rdf:RDF>
  </metadata>
  <g
     transform="translate(-187.03125,-1259.0813)"
     id="layer2"
     style="display:inline">
    <g
       transform="matrix(0.09212386,0,0,0.09212386,559.59315,1601.822)"
       id="text4858"
       style="font-size:40px;font-style:normal;font-variant:normal;font-weight:normal;font-stretch:normal;line-height:125%;letter-spacing:-41.38000107px;word-spacing:0px;fill:#990000;fill-opacity:1;stroke:none;font-family:Swis721 BlkEx BT;-inkscape-font-specification:Swis721 BlkEx BT">
      <path
         d="m 980.34375,272.8125 0,222.21875 230.50005,240.21875 0,-22.875 214.9062,0 0,278.25 230.5,0 0,-717.8125 -230.5,0 0,243.65625 -214.9062,0 0,-243.65625 -230.50005,0 z"
         transform="translate(-3775.347,-3482.3056)"
         id="path5186"
         style="font-size:998px;fill:#990000;font-family:Swis721 Blk BT;-inkscape-font-specification:Swis721 Blk BT" />
      <path
         d="m -2025.4928,-2491.6851 0,-717.7998 574.0449,0 0,172.0186 -343.5498,0 0,95.5117 290.4336,0 0,164.709 -290.4336,0 0,111.1055 357.6817,0 0,174.455 z"
         id="path5188"
         style="font-size:998px;fill:#990000;font-family:Swis721 Blk BT;-inkscape-font-specification:Swis721 Blk BT" />
      <path
         d="m -1143.4304,-2901.021 104.7705,0 c 36.7098,4e-4 62.04966,-4.9538 76.01952,-14.8628 13.96891,-9.9081 20.9536,-27.2074 20.9541,-51.8979 -5e-4,-25.3394 -6.98519,-42.9635 -20.9541,-52.8726 -13.96986,-9.908 -41.25892,-14.8622 -81.86722,-14.8628 l -98.9228,0 z m -227.5713,409.3359 0,-717.7998 343.5498,0 c 107.53138,8e-4 184.28179,16.0818 230.25146,48.2432 45.96839,32.1627 68.9529,84.954 68.95361,158.374 -7.1e-4,43.8579 -9.42192,80.2433 -28.26367,109.1563 -18.84311,28.9138 -47.91893,51.8171 -87.22754,68.7099 39.95835,8.447 69.03417,25.0965 87.22754,49.9488 18.19201,24.8528 27.93809,61.3194 29.23828,109.3999 l 3.89844,99.8974 c -7.1e-4,0.6498 0.16172,1.462 0.48731,2.4366 0.97389,28.5885 7.79615,43.5325 20.46679,44.832 l 0,26.8017 -232.44433,0 c -4.22381,-17.218 -7.39129,-32.2433 -9.50245,-45.0756 -2.11214,-12.8323 -3.16797,-22.8221 -3.16748,-29.9693 l 0,-71.6338 c -4.9e-4,-37.0349 -7.31005,-63.1057 -21.92871,-78.2124 -14.61959,-15.1062 -39.95945,-22.6594 -76.01955,-22.6596 l -97.9482,0 0,247.5507 z"
         id="path5190"
         style="font-size:998px;fill:#990000;font-family:Swis721 Blk BT;-inkscape-font-specification:Swis721 Blk BT" />
      <path
         d="m -422.66577,-2901.021 104.77051,0 c 36.70985,4e-4 62.04966,-4.9538 76.01953,-14.8628 13.96891,-9.9081 20.9536,-27.2074 20.9541,-51.8979 -5e-4,-25.3394 -6.98519,-42.9635 -20.9541,-52.8726 -13.96987,-9.908 -41.2589,-14.8622 -81.86719,-14.8628 l -98.92285,0 z m -227.57129,409.3359 0,-717.7998 343.5498,0 c 107.53139,8e-4 184.2818,16.0818 230.251469,48.2432 45.968388,32.1627 68.9529028,84.954 68.9536133,158.374 -7.105e-4,43.8579 -9.4219253,80.2433 -28.2636723,109.1563 -18.843111,28.9138 -47.918928,51.8171 -87.22754,68.7099 39.958351,8.447 69.034168,25.0965 87.22754,49.9488 18.192008,24.8528 27.9380923,61.3194 29.2382816,109.3999 l 3.8984375,99.8974 c -7.153e-4,0.6498 0.1617194,1.462 0.4873047,2.4366 0.9738926,28.5885 7.7961514,43.5325 20.4667972,44.832 l 0,26.8017 -232.444341,0 c -4.2238,-17.218 -7.39128,-32.2433 -9.50244,-45.0756 -2.11214,-12.8323 -3.16797,-22.8221 -3.16748,-29.9693 l 0,-71.6338 c -4.9e-4,-37.0349 -7.31005,-63.1057 -21.92871,-78.2124 -14.61959,-15.1062 -39.95941,-22.6594 -76.01953,-22.6596 l -97.94824,0 0,247.5507 z"
         id="path5192"
         style="font-size:998px;fill:#990000;font-family:Swis721 Blk BT;-inkscape-font-specification:Swis721 Blk BT" />
      <path
         d="m 279.09375,-2491.6851 -208.566406,0 0,-717.7998 280.687496,0 99.41016,358.169 c 1.29903,4.8734 3.89799,16.0002 7.79687,33.3804 3.89798,17.3808 9.42076,41.3399 16.56836,71.8774 4.5477,-24.0401 8.77101,-45.0754 12.66993,-63.106 3.89794,-18.0299 7.30907,-31.5932 10.23339,-40.6899 l 101.84668,-359.6309 280.2002,0 0,717.7998 -208.56641,0 1.94922,-353.2959 c -6.7e-4,-21.441 0.0805,-42.3139 0.24365,-62.6186 0.16177,-20.3039 0.40542,-41.3392 0.73096,-63.106 -7.79754,37.0356 -17.21875,77.4819 -28.26367,121.3389 l -1.46191,6.335 -88.68946,351.3466 -160.81054,0 -89.66407,-343.5498 c -4.2236,-15.5934 -8.44691,-33.4612 -12.66992,-53.6035 -4.22359,-20.1415 -9.74637,-47.4305 -16.56836,-81.8672 0.97434,30.8631 1.70529,57.34 2.19287,79.4307 0.48703,22.0915 0.73068,39.7969 0.73096,53.1162 z"
         id="path5194"
         style="font-size:998px;fill:#990000;font-family:Swis721 Blk BT;-inkscape-font-specification:Swis721 Blk BT" />
      <path
         d="m 1200.1406,-2737.2866 144.7295,0 -71.6338,-248.5254 z m -296.28123,245.6015 252.42383,-717.7998 233.4189,0 252.4239,717.7998 -228.5459,0 -26.8018,-95.0244 -228.5459,0 -27.7763,95.0244 z"
         id="path5196"
         style="font-size:998px;fill:#990000;font-family:Swis721 Blk BT;-inkscape-font-specification:Swis721 Blk BT" />
      <path
         d="m 1666.0449,-2491.6851 0,-717.7998 218.7998,0 201.2569,333.8037 c 6.172,9.4216 12.7506,22.7413 19.7358,39.959 6.9842,17.2185 14.375,38.0101 22.1724,62.375 -1.9498,-12.6696 -3.4117,-26.639 -4.3858,-41.9082 -0.9751,-15.2685 -1.4624,-33.7861 -1.4619,-55.5527 l 0,-338.6768 219.7744,0 0,717.7998 -219.7744,0 -201.2568,-331.3671 c -6.1729,-9.7458 -12.9139,-23.5528 -20.2232,-41.4209 -7.3098,-17.8675 -14.7006,-38.3343 -22.1723,-61.4004 2.2738,12.6703 3.8981,25.9087 4.873,39.7153 0.9743,13.8073 1.4616,33.2183 1.4619,58.2329 l 0,336.2402 z"
         id="path5198"
         style="font-size:998px;fill:#990000;font-family:Swis721 Blk BT;-inkscape-font-specification:Swis721 Blk BT" />
      <path
         d="m 2437.4888,-2491.6851 0,-717.7998 218.7998,0 201.2568,333.8037 c 6.172,9.4216 12.7506,22.7413 19.7359,39.959 6.9841,17.2185 14.3749,38.0101 22.1723,62.375 -1.9497,-12.6696 -3.4116,-26.639 -4.3857,-41.9082 -0.9752,-15.2685 -1.4625,-33.7861 -1.4619,-55.5527 l 0,-338.6768 219.7744,0 0,717.7998 -219.7744,0 -201.2569,-331.3671 c -6.1728,-9.7458 -12.9139,-23.5528 -20.2231,-41.4209 -7.3099,-17.8675 -14.7007,-38.3343 -22.1724,-61.4004 2.2738,12.6703 3.8982,25.9087 4.8731,39.7153 0.9743,13.8073 1.4616,33.2183 1.4619,58.2329 l 0,336.2402 z"
         id="path5200"
         style="font-size:998px;fill:#990000;font-family:Swis721 Blk BT;-inkscape-font-specification:Swis721 Blk BT" />
      <path
         d="m 3300.0591,-3193.4038 0,274.3525 -125.7246,0 0,-274.3525 z"
         id="path5202"
         style="font-size:998px;fill:#990000;font-family:Swis721 Blk BT;-inkscape-font-specification:Swis721 Blk BT" />
      <path
         d="m 3324.9526,-2715.3579 224.1602,0 c 6.1723,25.9898 17.3803,44.6698 33.624,56.04 16.2432,11.3706 40.446,17.0558 72.6084,17.0557 26.9638,1e-4 48.1615,-4.6292 63.5933,-13.8882 15.4308,-9.2586 23.1465,-22.0097 23.1469,-38.2534 -4e-4,-25.9894 -32.3249,-47.1059 -96.9736,-63.3496 -12.9951,-3.2484 -22.9036,-5.685 -29.7256,-7.3096 -52.954,-13.6442 -95.1058,-26.0705 -126.4555,-37.2788 -31.3501,-11.2077 -54.1722,-21.6847 -68.4663,-31.4311 -27.6141,-19.8167 -48.3245,-43.5322 -62.1314,-71.1465 -13.807,-27.6135 -20.7105,-59.1259 -20.7104,-94.5371 -1e-4,-71.1459 26.8016,-127.0235 80.4052,-167.6329 53.6034,-40.608 127.3487,-60.9123 221.2364,-60.913 92.2625,7e-4 164.8709,19.4116 217.8252,58.2329 52.9531,38.8225 82.8411,94.4564 89.664,166.9018 l -218.7998,0 c -3.574,-21.116 -12.914,-36.8721 -28.02,-47.2685 -15.1068,-10.3953 -36.6294,-15.5932 -64.5679,-15.5938 -24.6904,6e-4 -43.0455,4.0615 -55.0654,12.1826 -12.0205,8.1223 -18.0306,20.4674 -18.0303,37.0352 -3e-4,23.716 31.5121,43.533 94.5371,59.4512 5.5224,1.6248 9.7457,2.7618 12.67,3.4111 9.0959,2.2745 22.9029,5.6857 41.4208,10.2334 83.4911,21.117 138.0692,40.2843 163.7344,57.5019 31.8366,21.117 55.0648,45.1573 69.6846,72.1211 14.6185,26.9645 21.928,58.8017 21.9287,95.5118 -7e-4,79.2683 -27.6958,140.1814 -83.0854,182.7392 -55.3909,42.558 -134.7402,63.8369 -238.0484,63.8369 -95.1871,0 -170.638,-21.2789 -226.353,-63.8369 -55.7153,-42.5578 -86.9839,-102.4963 -93.8062,-179.8154 z"
         id="path5204"
         style="font-size:998px;fill:#990000;font-family:Swis721 Blk BT;-inkscape-font-specification:Swis721 Blk BT" />
    </g>
    <path
       d="m 7414.5,254.28125 c -93.8877,7e-4 -167.6154,20.29825 -221.2188,60.90625 -34.0232,25.7756 -57.228,57.7278 -69.6562,95.8125 l 0,142.21875 c 2.7831,8.3539 6.0977,16.41455 9.9688,24.15625 13.8068,27.6143 34.5421,51.33955 62.1562,71.15625 10.8664,7.4092 26.6824,15.22195 47.4062,23.46875 -27.1583,-19.6831 -47.5958,-43.191 -61.25,-70.5 -13.8069,-27.6136 -20.6874,-59.11995 -20.6874,-94.53125 0,-71.1459 26.8027,-127.04685 80.4062,-167.65625 53.6033,-40.608 127.3311,-60.90555 221.2188,-60.90625 60.5473,4e-4 112.6257,8.36965 156.25,25.09375 -51.5929,-32.7862 -119.7772,-49.21815 -204.5626,-49.21875 l -0.031,0 z m -6434.21875,18.53125 0,199.71875 48.31255,50.34375 0,-225.9375 182.1874,0 0,-24.125 -230.49995,0 z m 445.37495,0 0,243.65625 -166.5624,0 0,24.125 214.875,0 0,-243.65625 182.1874,0 0,-24.125 -230.5,0 z m 324.125,0 0,717.78125 48.3126,0 0,-693.65625 525.7187,0 0,-24.125 -574.0313,0 z m 654.5,0 0,717.78125 48.3126,0 0,-693.65625 343.5312,0 c 76.0318,6e-4 136.6523,8.04401 181.9062,24.125 -45.9697,-32.1614 -122.7186,-48.2492 -230.25,-48.25 l -343.5,0 z m 720.75,0 0,717.78125 48.3126,0 0,-693.65625 343.5624,0 c 76.032,6e-4 136.6524,8.04401 181.9063,24.125 -45.9697,-32.1614 -122.7187,-48.2492 -230.25,-48.25 l -343.5313,0 z m 720.7813,0 0,717.78125 48.3125,0 0,-693.65625 239.0625,0 -6.6875,-24.125 -280.6875,0 z m 529.1875,0 -101.8438,359.625 c -0.854,2.6564 -1.7525,5.73845 -2.6874,9.15625 l 3.75,13.5 c 1.2991,4.8734 3.8824,15.9948 7.7812,33.375 3.898,17.3808 9.4149,41.3375 16.5625,71.875 4.5477,-24.0401 8.7887,-45.06325 12.6875,-63.09375 3.898,-18.03 7.2944,-31.5906 10.2188,-40.6875 l 101.8437,-359.625 231.9063,0 0,-24.125 -280.2188,0 z m 556.5625,0 -228.0313,648.375 0,69.40625 32.4063,0 243.9375,-693.65625 193.5625,0 -8.5,-24.125 -233.375,0 z m 509.7187,0 0,672.5 15.9063,45.28125 32.4063,0 0,-693.65625 185.0312,0 -14.5312,-24.125 -218.8126,0 z m 456.125,0 0,337.59375 12.25,20.3125 c 6.172,9.4216 12.7647,22.75105 19.75,39.96875 6.9841,17.2185 14.359,38.0102 22.1563,62.375 -1.9498,-12.6696 -3.401,-26.63705 -4.375,-41.90625 -0.9752,-15.2685 -1.4693,-33.7959 -1.4687,-55.5625 l 0,-338.65625 171.4687,0 0,-24.125 -219.7813,0 z m 315.3126,0 0,717.78125 48.3124,0 0,-693.65625 185.0313,0 -14.5313,-24.125 -218.8124,0 z m 456.125,0 0,337.59375 12.25,20.3125 c 6.1719,9.4216 12.7646,22.75105 19.75,39.96875 6.984,17.2185 14.3587,38.0102 22.1562,62.375 -1.9498,-12.6696 -3.4008,-26.63705 -4.375,-41.90625 -0.9752,-15.2685 -1.4693,-33.7959 -1.4688,-55.5625 l 0,-338.65625 171.4688,0 0,-24.125 -219.7812,0 z m 280.7187,16.0625 0,274.375 48.3125,0 0,-250.25 77.4375,0 0,-24.125 -125.75,0 z m 537.5,153.90625 c 8.2329,9.5496 13.6075,21.7515 16.125,36.625 l 40.5625,0 c -4.8629,-9.4611 -11.6012,-17.1727 -20.25,-23.125 -9.5626,-6.5803 -21.7259,-11.0849 -36.4375,-13.5 z m -4663.0937,30.875 c 6.4072,10.0833 9.6246,23.68845 9.625,40.84375 -6e-4,24.6905 -7.031,41.99815 -21,51.90625 -13.97,9.9089 -39.2902,14.8754 -76,14.875 l -56.4688,0 0,24.125 104.7812,0 c 36.7099,4e-4 62.0301,-4.9661 76,-14.875 13.9691,-9.9081 20.9684,-27.21575 20.9688,-51.90625 -5e-4,-25.3394 -6.9998,-42.9661 -20.9688,-52.875 -7.9749,-5.6562 -20.2791,-9.67175 -36.9374,-12.09375 z m 720.75,0 c 6.398,10.0833 9.6246,23.68845 9.625,40.84375 -6e-4,24.6905 -6.9998,41.99815 -20.9688,51.90625 -13.9697,9.9089 -39.3214,14.8754 -76.0312,14.875 l -56.4688,0 0,24.125 104.7812,0 c 36.7099,4e-4 62.0926,-4.9661 76.0626,-14.875 13.9688,-9.9081 20.9058,-27.21575 20.9062,-51.90625 -5e-4,-25.3394 -6.9376,-42.9661 -20.9062,-52.875 -7.975,-5.6562 -20.3416,-9.67175 -37,-12.09375 z m 3855.625,42.3125 c 15.0254,12.5623 41.6983,23.6933 80.0312,33.375 5.5223,1.6248 9.7319,2.75685 12.6562,3.40625 9.096,2.2745 22.8883,5.7021 41.4063,10.25 50.3259,12.7286 90.0545,24.7511 119.375,36.0625 -1.3044,-0.8955 -2.6028,-1.8022 -3.9375,-2.6875 -25.6652,-17.2177 -80.2588,-36.3831 -163.75,-57.5 -18.5178,-4.5478 -32.3102,-7.9755 -41.4062,-10.25 -2.9243,-0.6493 -7.134,-1.78145 -12.6563,-3.40625 -11.6553,-2.9438 -22.2175,-6.0404 -31.7187,-9.25 z m -2303.5626,4.625 -20.875,71 L 5120.125,745 l -89.3438,0 -7.0624,24.125 144.75,0 -71.6876,-248.53125 z m -997.0624,15.125 c 0.9744,30.8631 1.6998,57.31545 2.1874,79.40625 0.4871,22.0915 0.7497,39.8055 0.75,53.125 l 0,63.09375 67.6876,259.25 42,0 -83.375,-319.40625 c -4.2236,-15.5932 -8.4647,-33.4826 -12.6876,-53.625 -4.2236,-20.1414 -9.7404,-47.40715 -16.5624,-81.84375 z m 398.125,0 c -7.7976,37.0356 -17.205,77.48685 -28.25,121.34375 l -1.4688,6.3125 -20.1562,79.8125 -1.3438,247.40625 48.4688,0 1.7812,-329.15625 c -8e-4,-21.4409 0.087,-42.3202 0.25,-62.625 0.1617,-20.3038 0.3933,-41.32705 0.7188,-63.09375 z m -2469.25,4.625 0,24.125 242.125,0 0,-24.125 -242.125,0 z m 3673.5,40.1875 c 2.2737,12.6703 3.9002,25.91215 4.875,39.71875 0.9742,13.8073 1.4371,33.2353 1.4374,58.25 l 0,0.90625 189,311.1875 33.6876,0 -186.625,-307.21875 c -6.1729,-9.7458 -12.9097,-23.5693 -20.2188,-41.4375 -7.31,-17.8674 -14.6845,-38.34005 -22.1562,-61.40625 z m 771.4062,0 c 2.2737,12.6703 3.9,25.91215 4.875,39.71875 0.9742,13.8073 1.4686,33.2353 1.4688,58.25 l 0,0.90625 189,311.1875 33.6562,0 L 6515.9062,683.375 c -6.1728,-9.7458 -12.9095,-23.5693 -20.2187,-41.4375 -7.3099,-17.8674 -14.7157,-38.34005 -22.1875,-61.40625 z M 2986.9062,678.25 c -2.3159,1.0724 -4.6709,2.12835 -7.0624,3.15625 6.4268,1.3585 12.5428,2.93495 18.4062,4.71875 -3.5549,-2.7893 -7.3513,-5.4153 -11.3438,-7.875 z m 720.7813,0 c -2.3159,1.0724 -4.6708,2.12835 -7.0625,3.15625 6.4268,1.3585 12.5429,2.93495 18.4062,4.71875 -3.5547,-2.7893 -7.3514,-5.4153 -11.3437,-7.875 z m -2282.0313,58.21875 0,254.125 48.3126,0 0,-254.125 -48.3126,0 z m 6074.8126,21.46875 c 11.2227,9.1358 16.8434,19.1086 16.8437,29.9375 -6e-4,16.2436 -7.6942,28.9913 -23.125,38.25 -15.4318,9.2589 -36.63,13.90645 -63.5937,13.90625 -13.235,8e-5 -25.0826,-0.97951 -35.625,-2.90625 3.4476,3.78257 7.228,7.10968 11.3124,9.96875 16.2431,11.3706 40.4625,17.0627 72.625,17.0625 26.9639,2e-4 48.162,-4.64735 63.5938,-13.90625 15.4309,-9.2588 23.1244,-22.0065 23.125,-38.25 -4e-4,-21.299 -21.7382,-39.3104 -65.1562,-54.0625 z m -400.2813,9 c 6.8221,77.3192 38.0975,137.2546 93.8125,179.8125 20.0642,15.32601 42.7245,27.87958 67.9062,37.6875 -6.7782,-4.25493 -13.3163,-8.76746 -19.5937,-13.5625 -55.7153,-42.5579 -86.9903,-102.4933 -93.8125,-179.8125 l 184,0 c -3.2987,-7.1891 -6.0407,-15.2172 -8.1562,-24.125 l -224.1563,0 z m -4291.0937,2.53125 c 12.429,15.5061 18.6246,40.32155 18.625,74.46875 l 0,71.625 c -4e-4,7.1473 1.0442,17.13645 3.1562,29.96875 2.1113,12.8324 5.2763,27.8444 9.5,45.0625 l 42.75,0 c -1.5886,-7.53165 -2.8792,-14.50465 -3.9375,-20.9375 -2.1122,-12.8323 -3.1568,-22.82145 -3.1563,-29.96875 l 0,-71.625 c -5e-4,-37.0348 -7.3188,-63.11205 -21.9374,-78.21875 -9.9881,-10.32054 -25.0011,-17.10638 -45,-20.375 z m 720.75,0 c 12.429,15.5061 18.6244,40.32155 18.625,74.46875 l 0,71.625 c -6e-4,7.1473 1.0442,17.13645 3.1562,29.96875 2.1112,12.8324 5.3074,27.8444 9.5312,45.0625 l 42.75,0 c -1.5963,-7.53165 -2.8793,-14.50465 -3.9374,-20.9375 -2.1121,-12.8323 -3.1881,-22.82145 -3.1876,-29.96875 l 0,-71.625 c -5e-4,-37.0348 -7.3189,-63.11205 -21.9374,-78.21875 -9.9982,-10.331 -24.9799,-17.1102 -45,-20.375 z m -1501.25,46.6875 0,24.125 309.375,0 0,-24.125 -309.375,0 z m 3140.25,103.5625 19.9687,70.875 41.5,0 -19.9687,-70.875 -41.5,0 z"
       transform="matrix(0.09212386,0,0,0.09212386,211.79353,1281.0185)"
       id="rect5182-7"
       style="fill:#000000;fill-opacity:1;fill-rule:nonzero;filter:url(#filter5246)" />
    <g
       transform="matrix(0.09212386,0,0,0.09212386,555.819,1464.9563)"
       id="text4858-7"
       style="font-size:40px;font-style:normal;font-variant:normal;font-weight:normal;font-stretch:normal;line-height:125%;letter-spacing:-41.38000107px;word-spacing:0px;fill:#990000;fill-opacity:1;stroke:none;display:inline;font-family:Swis721 BlkEx BT;-inkscape-font-specification:Swis721 BlkEx BT" />
    <g
       transform="matrix(0.09212386,0,0,0.09212386,-331.8094,1607.8774)"
       id="text4858-1"
       style="font-size:40px;font-style:normal;font-variant:normal;font-weight:normal;font-stretch:normal;line-height:125%;letter-spacing:-41.38000107px;word-spacing:0px;fill:#990000;fill-opacity:1;stroke:none;display:inline;font-family:Swis721 BlkEx BT;-inkscape-font-specification:Swis721 BlkEx BT" />
    <path
       d="m 187.03125,1259.0813 0,205.7405 800,0 0,-205.7405 -800,0 z m 707.8214,45.3645 c 8.4997,0 15.1991,1.7911 20.07755,5.3674 4.87815,3.5765 7.62345,8.6963 8.252,15.3703 l -20.14925,0 c -0.32935,-1.9453 -1.19165,-3.4049 -2.58325,-4.3628 -1.39165,-0.9578 -3.36755,-1.435 -5.94145,-1.4352 -2.2745,0 -3.9731,0.3713 -5.08035,1.1194 -1.10745,0.7484 -1.66475,1.8892 -1.66475,3.4157 0,2.1846 2.8909,4.0158 8.69685,5.4822 0.50875,0.1492 0.90745,0.2558 1.17685,0.3157 0.838,0.2093 2.11155,0.4994 3.8174,0.9185 7.6917,1.9452 12.71885,3.7382 15.0833,5.3243 2.93285,1.9455 5.06815,4.1464 6.41505,6.6303 1.34665,2.4842 2.03785,5.4157 2.03785,8.7974 0,7.3025 -2.5752,12.9422 -7.67795,16.8628 -5.1028,3.9205 -12.39725,5.8553 -21.91445,5.8553 -8.76905,0 -15.71975,-1.9348 -20.8525,-5.8553 -5.1326,-3.9206 -8.0254,-9.4529 -8.6538,-16.5758 l 20.6659,0 c 0.56865,2.3942 1.6035,4.119 3.0999,5.1665 1.49635,1.0475 3.72475,1.5499 6.68765,1.5499 2.48415,0 4.4337,-0.4098 5.85535,-1.2629 1.4216,-0.8528 2.13835,-2.0341 2.13835,-3.5304 0,-2.3942 -2.98515,-4.3446 -8.94085,-5.841 -1.1972,-0.2993 -2.09825,-0.5392 -2.7268,-0.6889 -4.8782,-1.2569 -8.7796,-2.3829 -11.6676,-3.4156 -2.88815,-1.0325 -4.9977,-2.0011 -6.31455,-2.8989 -2.54385,-1.8257 -4.44,-4.0004 -5.71185,-6.5442 -1.27195,-2.5441 -1.90875,-5.449 -1.90875,-8.7113 0,-6.5542 2.4815,-11.7153 7.41965,-15.4564 4.9381,-3.7409 11.7153,-5.5968 20.3645,-5.597 z m -592.73816,1.6935 21.2256,0 0,22.4598 19.79047,0 0,-22.4598 21.23995,0 0,66.1309 -21.23995,0 0,-25.6315 -19.79047,0 0,2.1096 -21.2256,-22.1297 0,-20.4793 z m 70.86681,0 52.88462,0 0,15.8582 -31.63031,0 0,8.783 26.75086,0 0,15.1693 -26.75086,0 0,10.2612 32.95063,0 0,16.0592 -54.20494,0 0,-66.1309 z m 60.30425,0 31.64466,0 c 9.9062,0 17.00505,1.486 21.23996,4.4489 4.23478,2.9629 6.34322,7.8316 6.34328,14.5953 0,4.0403 -0.87616,7.3966 -2.61194,10.0603 -1.73588,2.6637 -4.42983,4.7583 -8.05109,6.3145 3.68115,0.7783 6.37505,2.3029 8.05109,4.5925 1.67593,2.2895 2.57826,5.6595 2.69805,10.0889 l 0.34443,9.2136 c 0,0.059 0.0276,0.1108 0.0574,0.2009 0.0897,2.6338 0.72714,4.0279 1.89438,4.1475 l 0,2.4685 -21.42652,0 c -0.38911,-1.5861 -0.66659,-2.9509 -0.86108,-4.1332 -0.19459,-1.1822 -0.31575,-2.1401 -0.31573,-2.7985 l 0,-6.5729 c -2e-5,-3.4118 -0.66246,-5.8127 -2.00919,-7.2044 -1.34682,-1.3917 -3.69577,-2.0953 -7.01779,-2.0953 l -9.01263,0 0,22.8043 -20.96728,0 0,-66.1309 z m 66.40356,0 31.65901,0 c 9.9062,0 16.962,1.486 21.1969,4.4489 4.23477,2.9629 6.35758,7.8316 6.35764,14.5953 0,4.0403 -0.84746,7.3966 -2.58324,10.0603 -1.73588,2.6637 -4.42983,4.7583 -8.05109,6.3145 3.68113,0.7783 6.37506,2.3029 8.05109,4.5925 1.67594,2.2895 2.54956,5.6595 2.66935,10.0889 l 0.37313,9.2136 c 0,0.059 0,0.1108 0.0287,0.2009 0.0897,2.6338 0.72707,4.0279 1.89437,4.1475 l 0,2.4685 -21.39782,0 c -0.38907,-1.5861 -0.69529,-2.9509 -0.88978,-4.1332 -0.19457,-1.1822 -0.28709,-2.1401 -0.28703,-2.7985 l 0,-6.5729 c 0,-3.4118 -0.66245,-5.8127 -2.00918,-7.2044 -1.3468,-1.3917 -3.69581,-2.0953 -7.0178,-2.0953 l -9.01263,0 0,22.8043 -20.98163,0 0,-66.1309 z m 66.38921,0 25.86108,0 9.15611,33.008 c 0.1196,0.4489 0.3584,1.47 0.7176,3.0712 0.35905,1.6012 0.86275,3.8027 1.52125,6.616 0.41895,-2.2147 0.8176,-4.1514 1.1768,-5.8123 0.3591,-1.6612 0.6778,-2.8934 0.9472,-3.7314 l 9.3714,-33.1515 25.818,0 0,66.1309 -19.2164,0 0.1722,-32.5488 c 0,-1.9751 0.0135,-3.8988 0.0285,-5.7693 0.015,-1.8706 0.0561,-3.8069 0.0861,-5.8123 -0.7183,3.4119 -1.5944,7.1395 -2.6119,11.1797 l -0.14355,0.5741 -8.15155,32.3766 -14.8249,0 -8.252,-31.6591 c -0.38907,-1.4364 -0.78774,-3.0524 -1.17681,-4.9081 -0.38907,-1.8555 -0.89277,-4.3908 -1.52124,-7.5632 0.0897,2.8433 0.15596,5.2986 0.20092,7.3336 0.045,2.0352 0.0574,3.6525 0.0574,4.8794 l 0,31.9174 -19.21642,0 0,-66.1309 z m 100.02869,0 21.5126,0 23.2348,66.1309 -21.0534,0 -2.46845,-8.7687 -21.02465,0 -2.5832,8.7687 -20.8525,0 23.2348,-66.1309 z m 46.9719,0 20.16355,0 18.5276,30.7692 c 0.56855,0.868 1.16475,2.0878 1.8082,3.6739 0.64355,1.5863 1.34835,3.4958 2.0666,5.7406 -0.1796,-1.1673 -0.312,-2.4683 -0.40185,-3.8749 -0.0897,-1.4066 -0.1437,-3.1039 -0.14345,-5.1091 l 0,-31.1997 20.2497,0 0,66.1309 -20.2497,0 -18.5563,-30.5397 c -0.56865,-0.8978 -1.16355,-2.1427 -1.83695,-3.7887 -0.6734,-1.646 -1.3783,-3.5293 -2.0666,-5.6544 0.20945,1.1672 0.3694,2.3733 0.45925,3.6452 0.0897,1.2719 0.1435,3.063 0.1435,5.3674 l 0,30.9702 -20.16355,0 0,-66.1309 z m 71.0677,0 20.1636,0 18.5276,30.7692 c 0.5685,0.868 1.16465,2.0878 1.8082,3.6739 0.6435,1.5863 1.34835,3.4958 2.0666,5.7406 -0.1796,-1.1673 -0.3121,-2.4683 -0.40185,-3.8749 -0.0898,-1.4066 -0.14345,-3.1039 -0.14345,-5.1091 l 0,-31.1997 20.24969,0 0,66.1309 -20.24969,0 -18.5563,-30.5397 c -0.56865,-0.8978 -1.1636,-2.1427 -1.83695,-3.7887 -0.6735,-1.646 -1.37835,-3.5293 -2.0666,-5.6544 0.2094,1.1672 0.36945,2.3733 0.45925,3.6452 0.0897,1.2719 0.1435,3.063 0.1435,5.3674 l 0,30.9702 -20.1636,0 0,-66.1309 z m 67.88169,1.4925 11.56725,0 0,25.287 -11.56725,0 0,-25.287 z m -397.77547,14.5379 0,12.3852 9.64409,0 c 3.38186,0 5.73082,-0.4361 7.01779,-1.349 1.28685,-0.9126 1.92302,-2.5331 1.92308,-4.8077 0,-2.3345 -0.63623,-3.9378 -1.92308,-4.8508 -1.28697,-0.9127 -3.82216,-1.3775 -7.56314,-1.3777 l -9.09874,0 z m 66.41791,0 0,12.3852 9.64409,0 c 3.38186,0 5.70214,-0.4361 6.98909,-1.349 1.28689,-0.9126 1.95174,-2.5331 1.95178,-4.8077 0,-2.3345 -0.66489,-3.9378 -1.95178,-4.8508 -1.28695,-0.9127 -3.79346,-1.3775 -7.53444,-1.3777 l -9.09874,0 z m 156.21412,4.5924 -6.73075,22.9047 13.3323,0 -6.60155,-22.9047 z"
       id="rect3075"
       style="fill:#ffffff;fill-opacity:1;fill-rule:nonzero;display:inline" />
    <g
       transform="matrix(0.73699093,0,0,0.73699093,36.73525,404.01028)"
       id="text4388"
       style="font-size:65px;font-style:normal;font-variant:normal;font-weight:normal;font-stretch:normal;line-height:125%;letter-spacing:0px;word-spacing:0px;fill:url(#linearGradient4435);fill-opacity:1;stroke:none;font-family:Swis721 Blk BT;-inkscape-font-specification:Swis721 Blk BT">
      <path
         d="m 443.69965,1368.424 0,-34.4361 -13.45704,0 0,-12.3144 41.64063,0 0,12.3144 -13.17139,0 0,34.4361 z"
         id="path4401"
         style="fill:url(#linearGradient3147);fill-opacity:1" />
      <path
         d="m 476.64398,1330.4015 0,-9.8706 13.83789,0 0,9.8706 z m 0,38.0225 0,-34.4996 13.83789,0 0,34.4996 z"
         id="path4403"
         style="fill:url(#linearGradient3149);fill-opacity:1" />
      <path
         d="m 498.28949,1368.424 0,-34.4996 12.47314,0 0,5.0464 c 1.52342,-2.0312 3.23729,-3.5335 5.14161,-4.5068 1.90427,-0.9733 4.09421,-1.4599 6.56982,-1.46 2.26397,1e-4 4.21587,0.4761 5.85571,1.4283 1.63978,0.9521 3.10503,2.465 4.39575,4.5385 1.67151,-2.0735 3.50175,-3.5969 5.49073,-4.5703 1.98888,-0.9733 4.23172,-1.4599 6.72851,-1.4599 4.06245,0 7.21511,1.0473 9.45801,3.142 2.24278,2.0948 3.3642,5.0359 3.36426,8.8233 l 0,23.5181 -13.52051,0 0,-18.4717 c -5e-5,-2.1582 -0.36504,-3.724 -1.09497,-4.6973 -0.73003,-0.9733 -1.90963,-1.4599 -3.53882,-1.46 -1.67159,10e-5 -2.8988,0.5079 -3.68164,1.5235 -0.78292,1.0156 -1.17436,2.6025 -1.17432,4.7607 l 0,18.3448 -13.45703,0 0,-17.9957 c -2e-5,-2.3697 -0.37559,-4.0677 -1.12671,-5.0939 -0.75116,-1.0262 -1.98366,-1.5393 -3.69751,-1.5394 -1.52345,10e-5 -2.6819,0.5185 -3.47534,1.5552 -0.79347,1.0368 -1.1902,2.5497 -1.19018,4.5386 l 0,18.5352 z"
         id="path4405"
         style="fill:url(#linearGradient3151);fill-opacity:1" />
      <path
         d="m 578.07953,1351.5392 c -2e-5,2.4967 0.49721,4.4486 1.4917,5.8557 0.99444,1.4071 2.38035,2.1106 4.15771,2.1106 1.75616,0 3.1262,-0.6982 4.11011,-2.0947 0.98386,-1.3965 1.4758,-3.3537 1.47583,-5.8716 -3e-5,-2.7295 -0.45494,-4.7449 -1.36475,-6.0462 -0.90985,-1.3012 -2.31691,-1.9518 -4.22119,-1.9519 -1.92547,10e-5 -3.34841,0.656 -4.2688,1.9678 -0.92042,1.3119 -1.38063,3.322 -1.38061,6.0303 z m -13.2666,16.8848 0,-46.7505 13.39355,0 0,15.8691 c 1.35415,-1.5234 2.86172,-2.6713 4.52271,-3.4436 1.66094,-0.7723 3.44358,-1.1584 5.3479,-1.1584 4.52796,0 8.16199,1.6715 10.9021,5.0146 2.74003,3.3431 4.11006,7.7971 4.1101,13.3618 -4e-5,5.5225 -1.35949,9.9606 -4.07836,13.3142 -2.71895,3.3537 -6.30009,5.0305 -10.74341,5.0305 -2.3275,0 -4.42223,-0.4496 -6.28418,-1.3488 -1.862,-0.8993 -3.53355,-2.2693 -5.01465,-4.1101 l 0,4.2212 z"
         id="path4407"
         style="fill:url(#linearGradient3153);fill-opacity:1" />
      <path
         d="m 620.64056,1347.2863 12.21924,0 c -0.14814,-2.1371 -0.74058,-3.7398 -1.77734,-4.8084 -1.03681,-1.0685 -2.52851,-1.6028 -4.4751,-1.6028 -1.79852,0 -3.22145,0.566 -4.2688,1.698 -1.04738,1.132 -1.61338,2.7031 -1.698,4.7132 z m 11.48926,10.9179 13.13965,0 c -0.95219,3.7663 -3.04162,6.6175 -6.26831,8.5535 -3.22676,1.936 -7.48497,2.904 -12.77466,2.904 -5.92449,0 -10.62704,-1.6451 -14.10766,-4.9353 -3.48064,-3.2902 -5.22095,-7.7176 -5.22095,-13.2824 0,-5.7975 1.77734,-10.3731 5.33203,-13.7268 3.55468,-3.3537 8.38947,-5.0305 14.50439,-5.0306 6.13604,10e-5 10.94439,1.825 14.42505,5.4749 3.48059,3.6499 5.22091,8.7122 5.22095,15.1868 l 0,0.8252 -25.73975,0.032 c 0.0635,2.2005 0.64533,3.8985 1.74561,5.094 1.10024,1.1955 2.63426,1.7932 4.60205,1.7932 1.33298,0 2.44382,-0.2486 3.33252,-0.7458 0.88865,-0.4973 1.49167,-1.2114 1.80908,-2.1424 z"
         id="path4409"
         style="fill:url(#linearGradient3155);fill-opacity:1" />
      <path
         d="m 652.0932,1368.424 0,-34.4996 12.66357,0 0,6.2842 c 0.90982,-2.4967 2.21638,-4.3216 3.91968,-5.4748 1.70327,-1.1532 3.97255,-1.7297 6.80786,-1.7298 l 1.2378,0 0,13.6792 c -0.50784,-0.042 -0.9945,-0.079 -1.45996,-0.1111 -0.46553,-0.032 -0.90986,-0.048 -1.33301,-0.048 -2.77183,10e-5 -4.80837,0.6242 -6.10962,1.8726 -1.30129,1.2484 -1.95192,3.2056 -1.95191,5.8716 l 0,14.1553 z"
         id="path4411"
         style="fill:url(#linearGradient3157);fill-opacity:1" />
      <path
         d="m 681.1972,1357.0616 0,-12.2192 16.37696,0 0,12.2192 z"
         id="path4413"
         style="fill:url(#linearGradient3159);fill-opacity:1" />
      <path
         d="m 705.15961,1368.424 0,-46.7505 35.35644,0 0,11.7749 -20.34424,0 0,7.2363 16.18653,0 0,11.2988 -16.18653,0 0,16.4405 z"
         id="path4415"
         style="fill:url(#linearGradient3161);fill-opacity:1" />
      <path
         d="m 745.65765,1368.424 0,-34.4996 12.66358,0 0,6.2842 c 0.90981,-2.4967 2.21637,-4.3216 3.91968,-5.4748 1.70326,-1.1532 3.97255,-1.7297 6.80786,-1.7298 l 1.23779,0 0,13.6792 c -0.50784,-0.042 -0.99449,-0.079 -1.45996,-0.1111 -0.46552,-0.032 -0.90986,-0.048 -1.33301,-0.048 -2.77183,10e-5 -4.80837,0.6242 -6.10962,1.8726 -1.30129,1.2484 -1.95192,3.2056 -1.9519,5.8716 l 0,14.1553 z"
         id="path4417"
         style="fill:url(#linearGradient3163);fill-opacity:1" />
      <path
         d="m 798.59711,1353.0309 c -1.31188,0.5078 -3.05748,1.0474 -5.23682,1.6186 -3.42775,0.9099 -5.14162,2.1265 -5.1416,3.6499 -2e-5,0.9734 0.33852,1.7351 1.01562,2.2852 0.67707,0.5501 1.6398,0.8252 2.88819,0.8252 2.28513,0 3.95139,-0.529 4.99878,-1.5869 1.04733,-1.058 1.57101,-2.7401 1.57104,-5.0464 -3e-5,-0.4867 -0.005,-0.8516 -0.0159,-1.095 -0.0106,-0.2433 -0.0371,-0.4602 -0.0793,-0.6506 z m 1.26953,15.3931 -0.85694,-3.3008 c -1.75621,1.5446 -3.64992,2.6871 -5.68115,3.4277 -2.03127,0.7406 -4.31642,1.1108 -6.85547,1.1108 -3.89324,0 -6.90308,-0.9574 -9.02954,-2.8723 -2.12647,-1.9148 -3.1897,-4.6179 -3.18969,-8.1091 -1e-5,-3.4066 1.04735,-5.9245 3.14209,-7.5537 2.09471,-1.6292 6.05142,-2.8141 11.87011,-3.5547 0.74054,-0.1058 1.73501,-0.2221 2.9834,-0.3491 4.33754,-0.4655 6.50632,-1.5869 6.50635,-3.3643 -3e-5,-0.9944 -0.39676,-1.7191 -1.19019,-2.1741 -0.79348,-0.4548 -2.04714,-0.6823 -3.76098,-0.6823 -1.41767,0 -2.50735,0.2804 -3.26905,0.841 -0.76173,0.5608 -1.20607,1.423 -1.333,2.5867 l -13.39356,0 c 0.0635,-3.872 1.65039,-6.7972 4.76074,-8.7756 3.11034,-1.9783 7.68065,-2.9675 13.71094,-2.9676 2.83526,10e-5 5.45367,0.2646 7.85523,0.7935 2.40149,0.529 4.26876,1.2378 5.6018,2.1265 1.6292,1.1003 2.77177,2.3433 3.42774,3.7292 0.65588,1.3859 0.98384,3.3696 0.98388,5.9509 l 0,19.2334 c -4e-5,0.6348 0.12692,1.2008 0.38086,1.698 0.25387,0.4973 0.62415,0.9046 1.11084,1.222 l 0,0.9839 z"
         id="path4419"
         style="fill:url(#linearGradient3165);fill-opacity:1" />
      <path
         d="m 820.11566,1368.424 0,-34.4996 12.47315,0 0,5.0464 c 1.52342,-2.0312 3.23728,-3.5335 5.1416,-4.5068 1.90427,-0.9733 4.09421,-1.4599 6.56982,-1.46 2.26397,1e-4 4.21587,0.4761 5.85571,1.4283 1.63978,0.9521 3.10503,2.465 4.39576,4.5385 1.67151,-2.0735 3.50175,-3.5969 5.49072,-4.5703 1.98889,-0.9733 4.23172,-1.4599 6.72852,-1.4599 4.06244,0 7.21511,1.0473 9.458,3.142 2.24278,2.0948 3.3642,5.0359 3.36426,8.8233 l 0,23.5181 -13.52051,0 0,-18.4717 c -5e-5,-2.1582 -0.36504,-3.724 -1.09497,-4.6973 -0.73003,-0.9733 -1.90963,-1.4599 -3.53882,-1.46 -1.67159,10e-5 -2.8988,0.5079 -3.68164,1.5235 -0.78291,1.0156 -1.17435,2.6025 -1.17431,4.7607 l 0,18.3448 -13.45703,0 0,-17.9957 c -3e-5,-2.3697 -0.3756,-4.0677 -1.12671,-5.0939 -0.75117,-1.0262 -1.98367,-1.5393 -3.69751,-1.5394 -1.52346,10e-5 -2.68191,0.5185 -3.47535,1.5552 -0.79347,1.0368 -1.1902,2.5497 -1.19018,4.5386 l 0,18.5352 z"
         id="path4421"
         style="fill:url(#linearGradient3167);fill-opacity:1" />
      <path
         d="m 898.54095,1347.2863 12.21924,0 c -0.14814,-2.1371 -0.74058,-3.7398 -1.77734,-4.8084 -1.03681,-1.0685 -2.52851,-1.6028 -4.4751,-1.6028 -1.79852,0 -3.22145,0.566 -4.2688,1.698 -1.04738,1.132 -1.61338,2.7031 -1.698,4.7132 z m 11.48926,10.9179 13.13965,0 c -0.95219,3.7663 -3.04162,6.6175 -6.26831,8.5535 -3.22676,1.936 -7.48497,2.904 -12.77466,2.904 -5.92449,0 -10.62704,-1.6451 -14.10766,-4.9353 -3.48064,-3.2902 -5.22095,-7.7176 -5.22095,-13.2824 0,-5.7975 1.77734,-10.3731 5.33203,-13.7268 3.55468,-3.3537 8.38947,-5.0305 14.50439,-5.0306 6.13604,10e-5 10.94439,1.825 14.42505,5.4749 3.4806,3.6499 5.22091,8.7122 5.22095,15.1868 l 0,0.8252 -25.73975,0.032 c 0.0635,2.2005 0.64533,3.8985 1.74561,5.094 1.10024,1.1955 2.63426,1.7932 4.60205,1.7932 1.33299,0 2.44382,-0.2486 3.33252,-0.7458 0.88865,-0.4973 1.49167,-1.2114 1.80908,-2.1424 z"
         id="path4423"
         style="fill:url(#linearGradient3169);fill-opacity:1" />
      <path
         d="m 952.08344,1368.424 0,-46.7505 15.0122,0 0,15.8691 13.99658,0 0,-15.8691 15.01221,0 0,46.7505 -15.01221,0 0,-18.1226 -13.99658,0 0,18.1226 z"
         id="path4425"
         style="fill:url(#linearGradient3171);fill-opacity:1" />
      <path
         d="m 1016.2265,1351.1266 c 0,3.195 0.439,5.4907 1.3171,6.8872 0.8781,1.3965 2.3222,2.0947 4.3323,2.0947 2.0101,0 3.4648,-0.7035 4.364,-2.1106 0.8993,-1.407 1.3489,-3.6975 1.3489,-6.8713 0,-3.1527 -0.4496,-5.4219 -1.3489,-6.8079 -0.8992,-1.3859 -2.3539,-2.0788 -4.364,-2.0788 -2.0101,0 -3.4542,0.6877 -4.3323,2.063 -0.8781,1.3753 -1.3171,3.6499 -1.3171,6.8237 z m -13.8696,0 c 0,-5.7129 1.735,-10.2144 5.2051,-13.5047 3.47,-3.2901 8.2413,-4.9352 14.3139,-4.9353 6.0726,10e-5 10.8386,1.6452 14.2981,4.9353 3.4594,3.2903 5.1892,7.7918 5.1892,13.5047 0,5.7552 -1.735,10.2832 -5.2051,13.584 -3.47,3.3008 -8.2308,4.9511 -14.2822,4.9511 -6.0514,0 -10.8175,-1.6503 -14.2981,-4.9511 -3.4806,-3.3008 -5.2209,-7.8288 -5.2209,-13.584 z"
         id="path4427"
         style="fill:url(#linearGradient3173);fill-opacity:1" />
      <path
         d="m 1046.9809,1368.424 0,-34.4996 12.4731,0 0,5.0464 c 1.5235,-2.0312 3.2373,-3.5335 5.1416,-4.5068 1.9043,-0.9733 4.0943,-1.4599 6.5699,-1.46 2.2639,1e-4 4.2158,0.4761 5.8557,1.4283 1.6398,0.9521 3.105,2.465 4.3957,4.5385 1.6715,-2.0735 3.5018,-3.5969 5.4908,-4.5703 1.9888,-0.9733 4.2317,-1.4599 6.7285,-1.4599 4.0624,0 7.2151,1.0473 9.458,3.142 2.2428,2.0948 3.3642,5.0359 3.3642,8.8233 l 0,23.5181 -13.5205,0 0,-18.4717 c 0,-2.1582 -0.365,-3.724 -1.0949,-4.6973 -0.7301,-0.9733 -1.9097,-1.4599 -3.5389,-1.46 -1.6716,10e-5 -2.8988,0.5079 -3.6816,1.5235 -0.7829,1.0156 -1.1744,2.6025 -1.1743,4.7607 l 0,18.3448 -13.4571,0 0,-17.9957 c 0,-2.3697 -0.3755,-4.0677 -1.1267,-5.0939 -0.7511,-1.0262 -1.9836,-1.5393 -3.6975,-1.5394 -1.5234,10e-5 -2.6819,0.5185 -3.4753,1.5552 -0.7935,1.0368 -1.1902,2.5497 -1.1902,4.5386 l 0,18.5352 z"
         id="path4429"
         style="fill:url(#linearGradient3175);fill-opacity:1" />
      <path
         d="m 1125.4062,1347.2863 12.2192,0 c -0.1481,-2.1371 -0.7406,-3.7398 -1.7773,-4.8084 -1.0368,-1.0685 -2.5285,-1.6028 -4.4751,-1.6028 -1.7985,0 -3.2215,0.566 -4.2688,1.698 -1.0474,1.132 -1.6134,2.7031 -1.698,4.7132 z m 11.4892,10.9179 13.1397,0 c -0.9522,3.7663 -3.0416,6.6175 -6.2683,8.5535 -3.2268,1.936 -7.485,2.904 -12.7747,2.904 -5.9245,0 -10.627,-1.6451 -14.1076,-4.9353 -3.4807,-3.2902 -5.221,-7.7176 -5.221,-13.2824 0,-5.7975 1.7774,-10.3731 5.332,-13.7268 3.5547,-3.3537 8.3895,-5.0305 14.5044,-5.0306 6.1361,10e-5 10.9444,1.825 14.4251,5.4749 3.4806,3.6499 5.2209,8.7122 5.2209,15.1868 l 0,0.8252 -25.7397,0.032 c 0.063,2.2005 0.6453,3.8985 1.7456,5.094 1.1002,1.1955 2.6343,1.7932 4.602,1.7932 1.333,0 2.4439,-0.2486 3.3326,-0.7458 0.8886,-0.4973 1.4916,-1.2114 1.809,-2.1424 z"
         id="path4431"
         style="fill:url(#linearGradient3177);fill-opacity:1" />
      <path
         d="m 1155.0815,1357.5695 13.3301,0 c -10e-5,1.4599 0.3755,2.5496 1.1267,3.269 0.7511,0.7194 1.8778,1.0791 3.3801,1.0791 1.4388,0 2.5443,-0.2433 3.3166,-0.73 0.7723,-0.4866 1.1585,-1.1954 1.1585,-2.1264 0,-1.5446 -1.7033,-2.6872 -5.1099,-3.4278 -0.2962,-0.063 -0.529,-0.1163 -0.6982,-0.1587 -6.4535,-1.3753 -10.6641,-2.8564 -12.6318,-4.4433 -1.9678,-1.5869 -2.9517,-3.9144 -2.9517,-6.9824 0,-3.7028 1.4441,-6.5222 4.3323,-8.4583 2.8881,-1.936 7.104,-2.904 12.6477,-2.9041 5.1415,10e-5 9.1247,0.9099 11.9494,2.7295 2.8247,1.8197 4.4486,4.5281 4.8719,8.125 l -12.3462,0 c -0.1058,-1.0367 -0.5555,-1.8619 -1.3489,-2.4755 -0.7935,-0.6136 -1.7932,-0.9204 -2.9993,-0.9205 -1.206,10e-5 -2.1265,0.2064 -2.7612,0.6189 -0.6348,0.4127 -0.9522,1.0104 -0.9522,1.7933 0,1.3753 1.5552,2.3909 4.6656,3.0468 0.8251,0.1693 1.4493,0.2963 1.8725,0.3809 6.263,1.4388 10.3361,2.9675 12.2193,4.5862 1.8831,1.6186 2.8246,3.9937 2.8247,7.1252 -10e-5,3.9567 -1.5394,6.9401 -4.6179,8.9502 -3.0787,2.0101 -7.6331,3.0151 -13.6634,3.0151 -5.5859,0 -9.8441,-1.005 -12.7746,-3.0151 -2.9305,-2.0101 -4.5439,-5.0358 -4.8401,-9.0771 z"
         id="path4433"
         style="fill:url(#linearGradient3179);fill-opacity:1" />
    </g>
  </g>
  <g
     transform="translate(-187.03125,-1259.0813)"
     id="layer3"
     style="display:inline">
    <path
       d="m 287.24298,1314.495 -58.86711,61.6854 0,2.205 2.51037,0 5.68577,-6.0022 0,1.687 -0.81762,0 0,2.5681 10.96854,0 0,25.2444 0,2.3031 81.04883,0 0,-2.3031 0,-25.2444 11.03186,0 0,-2.5681 -0.87519,0 0,-1.6784 5.6829,6.0085 2.50746,0 0,-2.1969 -58.87581,-61.7084 z m 0.0318,4.353 0.64772,0.6851 -1.29835,0 0.65063,-0.6851 z m 1.99215,2.1072 20.52635,21.698 -1.71869,0 0,3.5986 -19.35175,0 0,-22.6887 0.54409,0 0,-2.6079 z m -4.05348,0.067 0,2.5395 0.56422,0 0,22.6881 -19.35749,0 0,-3.5986 -1.6927,0 20.48597,-21.629 z m 26.49139,23.647 1.49418,1.5806 -1.49418,0 0,-1.5806 z m -48.91776,0.031 0,1.5491 -1.46826,0 1.46826,-1.5491 z m -3.89223,4.1078 0.0807,0 0,23.1089 -8.88712,-13.81 8.80646,-9.2989 z m 2.64279,0 11.70839,0 0,2.309 -11.70839,0 0,-2.309 z m 14.27057,0 3.09191,0 0,25.2595 -3.09191,0 0,-25.2595 z m 5.65411,0 11.57886,0 0,2.3324 -11.57886,0 0,-2.3324 z m 14.14101,0 3.08901,0 0,25.2595 -3.08901,0 0,-25.2595 z m 5.64841,0 11.70254,0 0,2.3293 -11.70254,0 0,-2.3293 z m 14.2647,0 0.10371,0 8.75463,9.2556 -8.85829,13.8387 0,-23.0943 z m -14.2647,4.6066 11.70254,0 0,10.2082 -11.70254,0 0,-10.2082 z m -19.78942,0 11.57886,0 0,7.6228 -11.57886,0 0,-7.6228 z m -19.92468,0.026 11.70839,0 0,10.1791 -11.70839,0 0,-10.1791 z m 63.65761,7.9458 0,12.6778 -8.24799,0 8.24799,-12.6778 z m 2.57658,0.2645 8.34872,8.8266 -1.52581,0 0,3.5867 -6.82291,0 0,-12.4133 z m -81.04885,0 0,12.4051 -6.81715,0 0,-3.5871 -1.53446,0 8.35161,-8.818 z m 2.56793,0.1167 7.99462,12.287 -7.99462,0 0,-12.287 z m 32.17141,1.8657 11.57886,0 0,10.4213 -11.57886,0 0,-10.4213 z m 19.78942,2.4931 11.70254,0 0,7.9282 -11.70254,0 0,-7.9282 z m -39.7141,0.026 11.70839,0 0,7.9111 -11.70839,0 0,-7.9111 z m -12.24673,10.4791 8.22495,0 -8.22495,21.3125 0,-21.3125 z m 12.24673,0 11.70839,0 0,2.3 -11.70839,0 0,-2.3 z m 14.27057,0 3.0919,0 0,25.2447 -3.0919,0 0,-25.2447 z m 5.65411,0 11.57886,0 0,2.3146 -11.57886,0 0,-2.3146 z m 14.14101,0 3.08905,0 0,25.2447 -3.08905,0 0,-25.2447 z m 5.64841,0 11.70254,0 0,2.2857 -11.70254,0 0,-2.2857 z m 15.77901,0 8.1645,0 0,21.1565 -8.1645,-21.1565 z m -1.51431,3.1896 8.24802,22.0551 -8.24802,0 0,-22.0551 z m -56.54097,0.1569 0,21.8994 -8.18751,0 8.18751,-21.8994 z m 22.48685,1.2292 11.57886,0 0,7.9024 -11.57886,0 0,-7.9024 z m 19.78942,0 11.70254,0 0,10.4616 -11.70254,0 0,-10.4616 z m -39.7141,0 11.70839,0 0,10.4528 -11.70839,0 0,-10.4528 z m 19.92468,10.142 11.57886,0 0,10.5165 -11.57886,0 0,-10.5165 z m 19.78942,2.5682 11.70254,0 0,7.9483 -11.70254,0 0,-7.9483 z m -39.7141,0.1148 11.70839,0 0,7.8362 -11.70839,0 0,-7.8362 z"
       id="rect3818"
       style="fill:#550000;fill-opacity:1;fill-rule:nonzero" />
    <rect
       width="81.04969"
       height="10.115301"
       x="246.72284"
       y="1404.1862"
       id="rect3818-7"
       style="fill:#4d4d4d;fill-opacity:1;fill-rule:nonzero;display:inline" />
  </g>
  <g
     transform="translate(37,-70.0425)"
     id="layer1"
     style="display:none">
    <rect
       width="17.878456"
       height="7.4917669"
       x="367.66406"
       y="1360.7781"
       transform="translate(-224.03125,-1189.0388)"
       id="rect4202-4-8-5"
       style="fill:#000000;fill-opacity:1;fill-rule:nonzero;stroke:none;display:inline" />
    <rect
       width="17.878456"
       height="7.4917669"
       x="294.20679"
       y="1360.8093"
       transform="translate(-224.03125,-1189.0388)"
       id="rect4202-1"
       style="fill:#000000;fill-opacity:1;fill-rule:nonzero;stroke:none;display:inline" />
    <rect
       width="17.878456"
       height="7.4917669"
       x="331.10718"
       y="1361.0167"
       transform="translate(-224.03125,-1189.0388)"
       id="rect4202-4-1"
       style="fill:#000000;fill-opacity:1;fill-rule:nonzero;stroke:none;display:inline" />
  </g>
</svg>
